<?xml version="1.0" encoding="utf-8"?>
<!-- Generator: Adobe Illustrator 14.0.0, SVG Export Plug-In . SVG Version: 6.00 Build 43363)  -->
<!DOCTYPE svg PUBLIC "-//W3C//DTD SVG 1.1//EN" "http://www.w3.org/Graphics/SVG/1.1/DTD/svg11.dtd">
<svg version="1.1" id="Layer_1" xmlns="http://www.w3.org/2000/svg" xmlns:xlink="http://www.w3.org/1999/xlink" x="0px" y="0px"
	 width="383.514px" height="51.923px" viewBox="0 0 383.514 51.923" enable-background="new 0 0 383.514 51.923"
	 xml:space="preserve">
<path id="pen" fill="#FFFFFF" d="M382.622,12.447c0,0-170.775-15.319-187.3-11.968c-37.689,16.913-70.705,13.301-70.705,13.301
	s-4.112-8.702-6.764-9.867c-2.66-1.16-7.406,7.402-7.406,7.402l-54.38-6.196l-17.056-3.47l-16.919,8.61L0,7.675l1.144,5.355
	l48.974,4.279L2.013,16.513l0.058,6.143l22.302-0.143l46.924,29.41l40.384-12.677c0,0,5.146,9.665,7.635,9.583
	c2.486-0.084,8.473-14.006,8.473-14.006s53.016-5.514,70.796,4.987c22.748,0.726,184.931-22.349,184.931-22.349L382.622,12.447z
	 M119.179,21.646c-0.246-1.813-2.385-10.658-4.4-11.397c-1.034-0.378,2.211-2.204,3.233-1.82
	C120.748,9.417,119.33,22.723,119.179,21.646z"/>
</svg>
