<?xml version="1.0" encoding="utf-8"?>
<!-- Generator: Adobe Illustrator 16.0.4, SVG Export Plug-In . SVG Version: 6.00 Build 0)  -->
<!DOCTYPE svg PUBLIC "-//W3C//DTD SVG 1.1//EN" "http://www.w3.org/Graphics/SVG/1.1/DTD/svg11.dtd">
<svg version="1.1" id="Layer_1" xmlns="http://www.w3.org/2000/svg" xmlns:xlink="http://www.w3.org/1999/xlink" x="0px" y="0px"
	 width="310.134px" height="238.146px" viewBox="0 0 310.134 238.146" enable-background="new 0 0 310.134 238.146"
	 xml:space="preserve">
<g opacity="0.7">
	<g>
		<g>
			<g>
				<g>
					<g>
						<path fill="#FFFFFF" d="M114.665,233.05c-1.849-0.325-3.407-0.888-2.703-0.784c-3.768-0.724-3.773-1.059-4.364-0.821
							c-1.215-0.291-2.434-0.747-2.994-1.044c-0.564-0.281-0.481-0.354,0.872,0.09c0-0.001-1.712-0.551-3.377-1.354
							c-0.838-0.382-1.646-0.875-2.252-1.244c-0.586-0.428-0.977-0.712-0.977-0.712s0.888,0.767,1.853,1.347
							c0.47,0.327,0.97,0.553,1.333,0.767c0.365,0.207,0.614,0.321,0.614,0.321c-0.602-0.132-2.211-0.918-3.689-2.133
							c-0.379-0.278-0.73-0.623-1.064-0.965c-0.348-0.316-0.643-0.685-0.908-1.036c-0.135-0.171-0.265-0.334-0.387-0.488
							c-0.105-0.174-0.205-0.336-0.297-0.486c-0.185-0.301-0.346-0.548-0.481-0.719c0,0,0.258,0.549,0.708,1.32
							c0.262,0.343,0.557,0.767,0.909,1.164c0.373,0.356,0.753,0.787,1.177,1.113c0.834,0.695,1.72,1.24,2.385,1.638
							c0.676,0.357,1.126,0.595,1.126,0.595l-0.406-0.102c0.421,0.207,0.942,0.432,1.503,0.666c0.558,0.254,1.161,0.482,1.746,0.707
							c1.169,0.452,2.276,0.827,2.847,1.019c-0.196-0.013-0.106,0.127-1.427-0.312c2.255,0.762,3.558,1.028,4.342,1.182
							c0.785,0.154,1.06,0.126,1.285,0.107c0.453-0.063,0.708-0.107,4.483,0.543C116.05,233.349,115.465,233.249,114.665,233.05z"/>
						<path fill="#FFFFFF" d="M122.292,235.043c0,0,0.81,0.008,1.621,0.016c0.809-0.002,1.617-0.004,1.617-0.004
							s1.335,0.167,2.67,0.333c1.336,0.149,2.672,0.299,2.672,0.299c0.073-0.125,3.978,0.088,1.349-0.243
							c-0.517-0.021-1.54-0.065-2.362-0.156c0.622-0.201,7.12,0.427,5.57,0.018c-4.23-0.231-4.871-0.368-7.493-0.388
							c-3.87-0.416-6.676-0.878-8.46-1.252c-1.149-0.148-1.34,0.021-2.799-0.211c0.322,0.054,0.618,0.104,0.989,0.165l0.087,0.445
							c1.232,0.111,2.376,0.332,3.73,0.51c0,0-1.581-0.085-3.167-0.224c-1.585-0.126-3.176-0.304-3.176-0.304
							c1.95,0.832,8.172,1.49,10.619,1.893C122.74,235.222,128.211,236.064,122.292,235.043z"/>
						<path fill="#FFFFFF" d="M116.677,233.455c-0.041-0.007-0.107-0.019-0.153-0.026
							C116.57,233.436,116.636,233.448,116.677,233.455z"/>
						<path fill="#FFFFFF" d="M157.494,6.22c-1.313-0.136-1.711-0.078-1.905-0.047c0,0,0.923,0.1,2.308,0.25
							c1.388,0.132,3.229,0.387,5.07,0.636c1.845,0.232,3.683,0.508,5.059,0.739c1.378,0.219,2.296,0.365,2.296,0.365
							c-0.44-0.184-4.654-0.996-1.814-0.611c-0.621-0.159-1.897-0.375-3.092-0.524c-1.198-0.131-2.311-0.217-2.601-0.18l1.093-0.025
							c-3.427-0.246-5.699-0.974-3.464-0.811l-0.287-0.036c0,0-0.596-0.029-1.492-0.042c-0.894-0.018-2.086-0.042-3.278-0.066
							c-1.19-0.036-2.381-0.03-3.273-0.018c-0.892,0.007-1.486,0.011-1.486,0.011C154.087,6.188,153.322,5.769,157.494,6.22z"/>
						<path fill="#FFFFFF" d="M33.335,202.733c-0.76-1.779-0.887-1.985-0.843-1.766C32.781,201.599,33.061,202.197,33.335,202.733z"
							/>
						<path fill="#FFFFFF" d="M148.407,5.88l-2.969,0.106C146.624,5.978,147.668,5.926,148.407,5.88z"/>
						<path fill="#FFFFFF" d="M169.445,4.313c0.008-0.013,0.042-0.02-0.033-0.051l-1.358-0.08c0.021,0.003,0.026,0.004,0.034,0.005
							C168.585,4.234,169.032,4.275,169.445,4.313z"/>
						<path fill="#FFFFFF" d="M83.117,17.528c-0.292,0.122-0.543,0.227-0.892,0.372C82.549,17.765,82.843,17.643,83.117,17.528z"/>
						<path fill="#FFFFFF" d="M209.614,12.02c0,0-1.631-0.411-3.263-0.821c-1.627-0.423-3.269-0.79-3.269-0.79
							c0.897,0.118-2.243-0.693-0.839-0.458c-0.5-0.116-2.831-0.696-2.214-0.466l1.325,0.351c-3.514-0.574-1.465,0.062-7.224-1.093
							c3.487,1.064,5.072,1.3,6.975,1.656c0.637,0.154,1.169,0.282,1.708,0.412c0,0,1.384,0.228,2.754,0.514
							c1.375,0.274,2.749,0.548,2.749,0.548L209.614,12.02z"/>
						<path fill="#FFFFFF" d="M4.105,114.912l-0.045-0.063C4.086,114.911,4.098,114.92,4.105,114.912z"/>
						<path fill="#FFFFFF" d="M3.877,114.595l0.183,0.253C3.915,114.517,3.514,113.209,3.877,114.595z"/>
						<path fill="#FFFFFF" d="M149.508,5.742c-0.094,0.058-0.479,0.106-1.101,0.138l2.219-0.018
							C150.314,5.829,149.901,5.784,149.508,5.742z"/>
						<path fill="#FFFFFF" d="M154.602,5.409c0,0,1.389,0.139,2.777,0.278c1.39,0.137,2.777,0.289,2.777,0.289l2.064,0.095
							C160.095,5.827,157.601,5.62,154.602,5.409z"/>
						<path fill="#FFFFFF" d="M91.371,14.747c-10.751,3.843,2.5-1.356-2.479,0.304c-2.971,1.134-3.963,1.676-5.775,2.478
							c4.194-1.726,3.988-1.396,3.758-1.159c-0.217,0.271-0.438,0.499,3.844-1.055c-1.12,0.734-6.057,2.553-8.95,3.639
							c-3.381,0.972,2.747-1.358,3.373-1.955c-3.391,1.39-2.766,1.217-4.14,1.961c-5.364,2.09-10.687,5.182-13.953,6.312
							c-3.649,1.995-3.335,2.004-5.34,3.308c-0.124,0.267,1.247-0.438,2.854-1.231c0.801-0.399,1.658-0.826,2.403-1.197
							c0.758-0.341,1.407-0.614,1.782-0.72c-0.298,0.113-0.882,0.333-0.744,0.208l3.243-1.519c-3.098,1.401,0.251-0.563,1.911-1.32
							c1.196-0.567,3.586-1.671,3.302-1.418c0,0-0.457,0.206-0.901,0.439c-0.447,0.228-0.894,0.455-0.894,0.455
							c1.188-0.502,2.474-1.107,3.776-1.728c1.299-0.627,2.629-1.232,3.937-1.628c0.163,0.024-0.781,0.438-0.907,0.542
							c2.738-1.366,5.487-2.423,9.708-4.043c0,0-0.592,0.291-1.185,0.582c-0.585,0.309-1.17,0.617-1.17,0.617
							c0.811-0.414,1.916-0.855,3.198-1.318c1.282-0.464,2.731-0.987,4.272-1.423c3.064-0.939,6.428-1.756,9.198-2.318
							c-0.626,0.077-1.733,0.307-1.092,0.076c3.218-0.837,5.712-1.166,4.256-0.63c0.77-0.269,1.923-0.492,3.272-0.766
							c0.676-0.127,1.402-0.263,2.157-0.405c0.759-0.112,1.547-0.229,2.344-0.347c0.797-0.119,1.603-0.239,2.397-0.357
							c0.796-0.099,1.58-0.197,2.333-0.291c0.752-0.1,1.471-0.205,2.138-0.313c0.67-0.094,1.29-0.176,1.834-0.276
							c0,0,1.254-0.227,3.136-0.567c1.878-0.276,4.39-0.725,6.929-0.957c2.532-0.324,5.099-0.442,7.023-0.597
							c1.927-0.109,3.218-0.141,3.218-0.141c-0.771,0.007-1.596,0.002-2.445-0.025c-1.854-0.356-2.87-0.355,0.42-0.557
							c-3.225,0.084-2.003,0.34-6.823,0.332c1.886-0.179,2.374-0.569-2.26-0.517c-11.573,0.761-19.059,2.819-29.368,5.724
							c-0.227-0.097-2.37,0.434-4.957,1.101c-2.574,0.716-5.583,1.6-7.533,2.245c1.398-0.766,4.299-1.72,7.329-2.643
							c-1.913,0.537-5.208,1.468-7.613,2.289L91.371,14.747z"/>
						<path fill="#FFFFFF" d="M117.119,7.519c-0.289,0.032-0.584,0.065-0.889,0.1C116.395,7.612,116.66,7.584,117.119,7.519z"/>
						<path fill="#FFFFFF" d="M100.737,11.404c0.036-0.02,0.021-0.023,0.032-0.036c-0.319,0.091-0.639,0.183-0.966,0.276
							C100.132,11.559,100.504,11.463,100.737,11.404z"/>
						<path fill="#FFFFFF" d="M146.826,5.013c0.693-0.028,1.207-0.043,1.901-0.049c-0.428-0.007-0.961-0.017-1.476-0.026
							C146.759,4.947,146.525,4.968,146.826,5.013z"/>
						<path fill="#FFFFFF" d="M149.12,5.588l-0.375,0.07c0.295,0.032,0.502,0.055,0.763,0.083
							C149.592,5.695,149.51,5.643,149.12,5.588z"/>
						<path fill="#FFFFFF" d="M50.903,31.609l-0.901,0.646C50.56,31.889,50.79,31.715,50.903,31.609z"/>
						<path fill="#FFFFFF" d="M79.309,18.833c3.677-1.526,0.297-0.528,5.542-2.604l-1.55,0.583
							c3.712-1.628,10.461-3.917,15.094-5.206c-0.486,0.27,2.854-0.611,2.374-0.238c3.145-0.936,6.302-1.676,7.898-2.295
							c2.007-0.32,4.99-1.172,7.563-1.455c-1.1,0.042,3.562-1.053-2.626,0.133c0.498-0.101,0.178-0.08,0.67-0.18
							c-4.028,0.56-5.563,1.201-8.961,2.018c-2.07,0.344,3.284-0.988,1.348-0.593c-2.123,0.526-5.453,1.36-8.196,2.135
							c-2.73,0.824-4.887,1.52-4.666,1.737c-3.008,1.033-3.461,1.065-4.393,1.275c-1.141,0.554-2.81,1.219-4.672,1.909
							c-1.84,0.748-3.885,1.494-5.75,2.265c-3.742,1.515-6.826,2.957-6.659,3.256c0.83-0.391,1.921-0.905,3.11-1.466
							c1.201-0.533,2.494-1.122,3.705-1.721L79.309,18.833z"/>
						<path fill="#FFFFFF" d="M140.095,4.796c-0.247-0.007-0.575-0.015-0.78-0.021C139.545,4.781,139.832,4.789,140.095,4.796z"/>
						<path fill="#FFFFFF" d="M189.761,13.716l-1.732,0.07c-9.291-1.981-12.645-2.745-20.835-4.041
							c-0.616-0.161,0.384-0.041,0.891,0.02c-5.763-0.894-14.412-2.01-18.641-2.042c-1.838-0.181-6.661-0.509-4.827-0.568
							c-0.899-0.016-1.922-0.033-2.952-0.051c-0.134-0.083,0.442-0.086,1.06-0.082c0.619,0.024,1.279,0.053,1.312-0.012
							c-0.817-0.053-1.135-0.101-1.325-0.059c1.383-0.069-1.414-0.623,5.024-0.285c2.466,0.505-4.465-0.183-3.015,0.31
							c2.129,0.111,1.891-0.063,2.076-0.104c2.717,0.15,2.637,0.307,2.485,0.373c1.05-0.031,4.45,0.377,5.904,0.374
							c5.278,0.542-0.32,0.281,3.123,0.651c0,0,0.509-0.051,1.018-0.103c0.509-0.04,1.018-0.079,1.018-0.079
							s1.428,0.212,2.855,0.425c0.713,0.106,1.427,0.213,1.962,0.292c0.534,0.089,0.891,0.149,0.891,0.149
							c4.141,0.584,3.876,0.357,3.76,0.141c-0.12-0.19-0.076-0.477,4.664,0.284c-1.282,0.012,2.448,0.994,6.79,2.014
							c-2.614-0.548-7.508-1.183-10.877-1.874c4.729,1.089-6.592-1.01-4.166-0.239c1.194,0.099,2.778,0.3,4.445,0.549
							c1.667,0.253,3.408,0.615,4.932,0.934l-1.011-0.145c3.249,0.62,5.794,0.705,10.235,1.82c2.221,0.49,1.779,0.513,1.367,0.521
							C188.079,13.324,189.776,13.624,189.761,13.716z M184.912,12.707c0,0-0.74-0.174-1.479-0.349
							c-0.742-0.163-1.484-0.326-1.484-0.326C182.64,12.248,183.753,12.458,184.912,12.707z"/>
						<path fill="#FFFFFF" d="M165.361,237.567c-0.306-0.019-0.658-0.041-0.937-0.058
							C164.629,237.534,164.984,237.551,165.361,237.567z"/>
						<path fill="#FFFFFF" d="M292.12,57.11l1.235,1.356C292.873,57.936,292.478,57.502,292.12,57.11z"/>
						<path fill="#FFFFFF" d="M309.446,94.172l0.331,2.667C309.68,95.783,309.568,94.958,309.446,94.172z"/>
						<path fill="#FFFFFF" d="M186.709,237.108l0.087-0.003c0.146-0.019,0.258-0.032,0.411-0.052L186.709,237.108z"/>
						<path fill="#FFFFFF" d="M297.438,174.265c-0.196,0.359-0.408,0.766-0.682,1.329
							C296.823,175.542,297.074,175.044,297.438,174.265z"/>
						<path fill="#FFFFFF" d="M309.359,93.682c0.007,0.069,0.011,0.109,0.017,0.163c0.021,0.103,0.054,0.216,0.07,0.327
							L309.359,93.682z"/>
						<path fill="#FFFFFF" d="M279.248,44.378c-0.329-0.212-0.629-0.404-0.983-0.632C278.722,44.053,279.008,44.233,279.248,44.378z
							"/>
						<path fill="#FFFFFF" d="M280.593,46.879c-0.341-0.24-0.667-0.47-0.922-0.649L280.593,46.879z"/>
						<path fill="#FFFFFF" d="M225.634,18.151c0,0-0.574-0.19-1.147-0.381c-0.571-0.194-1.148-0.374-1.148-0.374
							C224.462,17.778,225.134,18.007,225.634,18.151z"/>
						<path fill="#FFFFFF" d="M275.505,42.904c-0.127-0.062-0.254-0.125-0.343-0.168C275.446,42.917,275.593,42.988,275.505,42.904z
							"/>
						<path fill="#FFFFFF" d="M150.164,235.757c0.054,0.002,0.113,0.004,0.145,0.005l0.062-0.047L150.164,235.757z"/>
						<path fill="#FFFFFF" d="M144.316,236.125c-0.688-0.021-1.404-0.044-2.107-0.066
							C142.991,236.101,143.754,236.125,144.316,236.125z"/>
						<path fill="#FFFFFF" d="M276.208,202.607c-0.518,0.392-1.681,1.361-1.207,0.831
							C274.151,204.338,274.354,204.445,276.208,202.607z"/>
						<path fill="#FFFFFF" d="M161.903,233.565c-0.38,0.048-0.853,0.08-1.328,0.111
							C161.458,233.636,162.231,233.604,161.903,233.565z"/>
						<path fill="#FFFFFF" d="M160.575,233.676c-0.436,0.021-0.901,0.043-1.293,0.062
							C159.735,233.716,160.171,233.696,160.575,233.676z"/>
						<path fill="#FFFFFF" d="M284.429,188.328c0.117-0.104,0.282-0.28,0.485-0.533
							C284.811,187.835,284.643,188.034,284.429,188.328z"/>
						<path fill="#FFFFFF" d="M140.51,235.901c-0.381,0.102-9.566-0.28-1.856,0.267c-0.316,0.305-4.96-0.166-7.025-0.274
							c1.49,0.197-0.761,0.14-0.316,0.29c1.026,0.049,2.248,0.056,3.935,0.198c0.767,0.194-1.804,0.122-3.804-0.106
							c2.456,0.371-3.155-0.013,0.331,0.405c7.484,0.495,12.766,0.565,18,0.33c-4.229-0.092-8.991-0.218-12.468-0.569l1.481-0.184
							c3.922,0.47,6.363,0.391,10.219,0.578c0,0-2.167-0.13-4.334-0.259c-2.17-0.145-4.341-0.289-4.341-0.289
							c-4.059-0.466-1.33-0.345,1.878-0.229C141.42,236.017,140.708,235.959,140.51,235.901z"/>
						<path fill="#FFFFFF" d="M146.461,233.798l-0.145-0.014c-0.127,0.004-0.282,0.009-0.365,0.012L146.461,233.798z"/>
						<path fill="#FFFFFF" d="M224.198,23.485l-0.729-0.154C224.064,23.497,224.254,23.531,224.198,23.485z"/>
						<path fill="#FFFFFF" d="M151.57,235.332h-0.006C151.623,235.332,151.637,235.332,151.57,235.332z"/>
						<path fill="#FFFFFF" d="M241.272,30.224c-0.026-0.005-0.054-0.01-0.099-0.018C241.237,30.225,241.241,30.217,241.272,30.224z"
							/>
						<path fill="#FFFFFF" d="M248.19,26.866c-0.026-0.025-0.031-0.041-0.101-0.085C247.717,26.633,247.89,26.723,248.19,26.866z"/>
						<path fill="#FFFFFF" d="M241.296,30.207c-0.003,0.007,0.004,0.02-0.023,0.018C241.289,30.221,241.322,30.227,241.296,30.207z"
							/>
						<path fill="#FFFFFF" d="M303.271,87.583c0,0-0.014-0.282-0.064-0.721C303.146,86.701,303.153,86.874,303.271,87.583z"/>
						<path fill="#FFFFFF" d="M298.065,71.017c-0.042-0.104-0.066-0.165-0.12-0.297L298.065,71.017z"/>
						<path fill="#FFFFFF" d="M280.163,200.493c0.63-0.656,1.102-1.147,1.5-1.563C281.196,199.4,280.697,199.915,280.163,200.493z"
							/>
						<path fill="#FFFFFF" d="M241.174,30.206c-0.179-0.048-0.431-0.126-0.84-0.267C240.784,30.095,241.026,30.169,241.174,30.206z"
							/>
						<path fill="#FFFFFF" d="M306.299,114.252c0-0.189,0-0.367,0-0.547l-0.031,0.323L306.299,114.252z"/>
						<path fill="#FFFFFF" d="M305.413,123.476c-0.003-0.318-0.022-0.466-0.034-0.645c-0.187,3.303-1.107,9.31-0.951,10.06
							c0.067-0.558,0.385-2.267,0.616-3.722c0.236-1.454,0.464-2.645,0.489-2.142c0.237-2.297,0.726-5.681,0.786-6.927
							c-0.498,3.766-0.271,0.387-0.158-2.168c0.211-2.317,0.209,0.453,0.371-1.546c0,0,0.064-1.346,0.13-2.691
							c0.086-1.346,0.08-2.693,0.081-2.693c0,0-0.004,1.174-0.098,2.345c-0.072,1.171-0.146,2.343-0.146,2.343l-0.201-1.438
							c0,0.174,0.001,0.293,0.001,0.479c-0.136,3.964-0.285,4.122-0.397,4.307S305.683,119.428,305.413,123.476z"/>
						<path fill="#FFFFFF" d="M305.379,122.832c0.026-0.495,0.044-0.931,0.044-1.27
							C305.361,122.306,305.364,122.597,305.379,122.832z"/>
						<path fill="#FFFFFF" d="M299.815,154.693c-0.067,0.401-0.14,0.837-0.231,1.384
							C299.628,155.816,299.729,155.212,299.815,154.693z"/>
						<path fill="#FFFFFF" d="M166.148,6.658c0.126,0.103,4.653,0.995,4.606,0.771c-1.349-0.237-2.708-0.477-4.072-0.717
							L166.148,6.658z"/>
						<path fill="#FFFFFF" d="M246.782,220.648l1.403-0.664c0.094-0.059,0.186-0.115,0.257-0.159
							C248.144,219.932,247.239,220.408,246.782,220.648z"/>
						<path fill="#FFFFFF" d="M305.464,128.46c0.068-0.847,0.079-1.226,0.069-1.433C305.485,127.576,305.452,128.083,305.464,128.46
							z"/>
						<path fill="#FFFFFF" d="M246.296,220.317c-0.617,0.228-1.527,0.56-1.686,0.545c-1.203,0.583-2.006,1.086-3.254,1.638
							C242.775,221.902,244.374,221.125,246.296,220.317z"/>
						<path fill="#FFFFFF" d="M241.256,222.546c0.035-0.016,0.069-0.032,0.101-0.047L241.256,222.546z"/>
						<path fill="#FFFFFF" d="M163.442,6.191c-0.396-0.039-0.803-0.079-1.222-0.12l0.64,0.029c-1.049-0.163-2.093-0.326-3.139-0.488
							c-0.382-0.032-0.796-0.066-1.304-0.108c0.205,0.015,0.366,0.01,0.467-0.003c-0.342-0.045-0.675-0.09-1.009-0.135
							c-2.536-0.099-8.811-0.477-10.625-0.428c-2.398-0.048-5.321-0.106-7.156-0.143c0.85,0.017,1.839,0.024,2.533,0.01
							c0.693-0.001,1.09-0.015,0.753-0.096c-3.446-0.21-5.142-0.68-11.103-0.184c0,0,0.218-0.022,0.546-0.024
							c0.328-0.007,0.766-0.017,1.203-0.025c0.875-0.019,1.75-0.037,1.75-0.037s-0.491,0.04-1.228,0.099
							c-0.736,0.073-1.718,0.106-2.695,0.248c-1.951,0.241-3.901,0.481-3.901,0.481c-2.76,0.01,3.89-0.513,4.977-0.705
							c-6.087,0.502-11.224,0.489-13.984,1.284c-0.431-0.203-1.154-0.498-5.133,0.183c2.914-0.201-2.35,0.575,0.052,0.475
							c-1.342,0.376-4.418,0.781-4.61,0.998l0.348-0.172c-6.803,1.079-8.818,2.34-11.583,3.306c-3.927,1.19-6.768,2.131-9.429,3.019
							c-1.322,0.469-2.6,0.922-3.941,1.397c-1.334,0.495-2.716,1.056-4.271,1.676c-0.311-0.071-2.165,0.224-4.637,1.306
							c-1.075,0.672-6.542,3.315-6.954,3.878c4.377-1.975,3.456-1.884,6.042-3.158c2.322-0.67,0.319,0.183,3.393-0.938
							c-1.237,0.458-3.963,1.659-6.675,2.963c-1.371,0.621-2.713,1.317-3.902,1.882c-1.187,0.57-2.211,1.029-2.876,1.316
							l0.885-0.509c-4.141,2.014-5.328,1.727-11.725,6.052c0,0-0.763,0.512-1.526,1.024c-0.75,0.532-1.5,1.063-1.5,1.063
							c0.133-0.12,0.133-0.158,0.198-0.231c-2.537,1.611-3.5,2.136-4.486,2.769c-0.982,0.638-2.067,1.274-4.649,3.367
							c0.401-0.32,0.124-0.154,0.532-0.479c-0.786,0.529-1.556,1.083-2.304,1.645c-0.739,0.573-1.439,1.174-2.121,1.75
							c-1.374,1.141-2.588,2.29-3.652,3.242c-1.486,0.946,0.165-0.443,0.882-1.273c-5.224,4.162-10.032,9.568-12.508,12.852
							c0,0-0.723,0.786-1.446,1.571c-0.739,0.773-1.411,1.602-1.411,1.602c1.503-2.035,3.398-4.512,2.77-4.033
							c-0.753,0.909-1.034,1.296-1.403,1.768c-0.36,0.478-0.853,1.004-1.883,2.315c0.117-0.271,0.362-0.705,0.686-1.24
							c0.35-0.518,0.767-1.137,1.209-1.794c-1.19,1.264-1.802,2.011-2.104,2.47c-0.312,0.449-0.345,0.588-0.341,0.671
							c0.006,0.169,0.152,0.109-1.525,1.879c-1.259,1.779-1.804,2.937-1.789,3.23c0,0-0.165,0.185-0.373,0.488
							c-0.214,0.3-0.5,0.699-0.785,1.1c-0.573,0.802-1.146,1.604-1.146,1.604c-0.042,0.23-0.598,1.435-1.369,2.905
							c-0.403,0.728-0.772,1.565-1.142,2.393c-0.359,0.831-0.776,1.628-1.038,2.375c-0.099,0.373,1.263-2.223,1.691-3.343
							c0.073,0.302-1.327,3.342-2.016,5.376c-0.185,0.142-0.614,1.029-0.983,2.296c-0.193,0.631-0.411,1.343-0.638,2.083
							c-0.19,0.76-0.388,1.549-0.58,2.312c-0.764,3.054-1.43,5.695-1.396,4.377c-0.266,1.194-0.544,2.449-0.832,3.742
							c-0.143,0.646-0.289,1.303-0.436,1.967c-0.121,0.666-0.243,1.339-0.366,2.017c-0.124,0.678-0.248,1.359-0.373,2.043
							l-0.211,2.062c-0.209,1.373-0.104,2.742-0.084,4.082c-0.007,0.671,0.17,1.326,0.244,1.977
							c0.113,0.649,0.159,1.293,0.323,1.916c0.307,1.249,0.573,2.449,0.881,3.583c0.636,2.269,1.222,4.263,1.618,5.829
							c0.356,2.109,1.343,6.343,0.525,3.86c0.918,3.836,1.663,6.733,2.531,9.587c0.855,2.856,1.692,5.708,2.612,9.51
							c0.104,0.642-0.895-3.421-0.982-3.11c1.43,4.909,2.231,9.035,4.545,16.628c-0.376-1.281-0.581-1.627-0.68-1.791
							c0.049-0.159,1.035,3.085,1.721,5.021c0.306,1.112-0.517-1.448-0.382-0.813c2.198,7.343,4.246,13.78,6.631,20.088
							c2.24,6.359,4.807,12.582,7.448,19.726c-1.513-4.078-2.389-5.506-2.53-5.504l1.484,3.999c0.695,1.494,1.905,4.459,3.02,6.896
							c0.066,0.327,0.493,1.56-0.075,0.355c1.448,3.958,2.739,6.987,4.318,10.147c1.562,3.168,3.235,6.541,5.217,11.304
							l-5.587-11.199l1.027,2.928l-2.461-4.934c1.131,3.091,2.665,5.545,2.594,6.006c-0.341-0.609-0.989-2.153-1.131-2.149
							c1.172,2.934,1.439,3.089,2.43,5.245c-0.738-1.383-1.597-3.124-2.514-5.052c-0.922-1.925-1.901-4.037-2.788-6.199
							c-1.807-4.312-3.637-8.663-4.876-11.725c-0.399-0.959,0.423,0.791,0.535,0.944c-0.957-2.519-1.375-4.089-2.641-7.236
							c-0.933-1.9,0.416,1.561,0.979,3.135c-0.251-0.151-0.535-0.943-1.211-2.679c0.043-0.232-0.828-2.635-1.781-5.273
							c-0.957-2.637-1.861-5.556-2.125-6.733c-3.299-9.384-0.082,1.71-3.133-7.515c0,0-0.172-0.707-0.317-1.423
							c-0.151-0.714-0.302-1.427-0.302-1.427c-0.948-2.657-2.015-5.711-3.077-8.866c-0.264-0.789-0.529-1.584-0.794-2.38
							c-0.24-0.803-0.48-1.607-0.72-2.407c-0.46-1.605-0.916-3.194-1.355-4.729l0.379,1.291c0.362,0.828,0.024-0.616-0.098-1.263
							c-0.607-2.334-1.291-4.519-1.89-6.481c-0.554-1.976-1.023-3.729-1.256-5.177c-0.821-2.626-1.918-6.137-2.908-9.767
							c-0.955-3.639-1.934-7.369-2.73-10.405c-0.029-1.736,2.174,7.898,2.994,10.386l-1.306-5.562
							c0.811,3.438,1.266,4.762,1.953,6.773c-1.078-4.892-1.767-6.418-2.942-11.018c0.182,0.335,0.097-0.296-0.401-2.429
							l-0.395-0.543c0.009-0.043-0.035-0.281-0.192-0.938c0,0-0.144-0.508-0.359-1.269c-0.216-0.761-0.513-1.766-0.757-2.823
							c-0.242-1.053-0.545-2.077-0.673-2.895c-0.128-0.816-0.213-1.361-0.213-1.361c0.082,0.931,0.055,1.442,0.091,1.981
							c0.052,0.53,0.127,1.109,0.374,2.201c-0.028-0.821,0.379,1.067,0.956,3.147c-0.643-1.807,0.412,2.086,0.272,2.073
							c-0.28-1.056-0.575-2.171-0.873-3.294c-0.3-1.122-0.55-2.327-0.82-3.444c-0.477-2.284-0.766-4.493-0.744-6.039l0.215-0.995
							c0.159-2.192,0.424-4.427,0.837-6.387c0.338-2.005,0.777-3.762,1.131-5.145l-0.09,0.901c0.603-2.439,1.201-4.858,1.782-7.21
							c0.306-1.176,0.567-2.315,0.917-3.46c0.37-1.145,0.703-2.276,1.129-3.337c0.353-1.089,0.714-2.262,1.13-3.439
							c0.474-1.154,0.957-2.331,1.43-3.484c0.541-1.121,1.071-2.219,1.568-3.249c0.54-1.006,1.044-1.945,1.49-2.775
							c0.103-0.232,0.297-0.582,0.563-1.026c0.285-0.43,0.651-0.944,1.07-1.528c0.424-0.58,0.898-1.229,1.406-1.924
							c0.542-0.664,1.121-1.37,1.714-2.097c1.154-1.479,2.524-2.892,3.695-4.286c1.228-1.341,2.358-2.57,3.163-3.579
							c0.268-0.22-2.284,2.695-3.349,4.086c2.308-2.502,3.95-4.69,4.943-5.204c-1.394,1.305-2.019,1.995-2.259,2.281
							c-0.242,0.286-0.09,0.178,0.155-0.021c0.492-0.398,1.356-1.158,0.211,0.121c1.209-1.312,2.549-2.558,3.662-3.715
							c1.145-1.122,2.151-2.06,2.758-2.693c-4.268,3.887,1.226-1.703-2.997,2.35c3.115-3.311,7.792-7.409,12.19-10.544
							c0.036,0.137,0.609-0.208,2.259-1.354c0,0,0.299-0.279,0.597-0.558c0.306-0.269,0.612-0.538,0.612-0.538
							c1.049-0.701,0.076,0.036-0.628,0.598c-0.682,0.595-1.136,0.953,0.962-0.471c1.032-0.799,2.346-1.778,3.811-2.742
							c1.477-0.945,3.034-1.988,4.566-2.894c3.035-1.864,5.81-3.437,6.66-4.263c3.575-1.75-6.464,3.939-1.107,1.242
							c-1.471,0.934-3.247,1.994-4.763,2.923c-1.53,0.906-2.763,1.74-3.164,2.176c2.82-1.917,1.177-0.466,3.05-1.61l3.155-2.12
							l-0.728,0.421c1.331-0.88,2.912-1.795,4.61-2.798c1.722-0.959,3.581-1.971,5.513-2.959c1.947-0.958,3.928-1.976,5.931-2.867
							c0.996-0.458,1.984-0.911,2.955-1.356c0.98-0.423,1.943-0.839,2.878-1.243c1.548-0.765,3.002-1.415,4.41-2.062
							c1.403-0.66,2.779-1.266,4.212-1.849c1.428-0.598,2.9-1.206,4.529-1.769c1.622-0.585,3.376-1.194,5.377-1.76
							c-1.15,0.437,0.516-0.016,1.853-0.351c1.339-0.33,2.35-0.526-0.113,0.353c1.858-0.479,3.709-0.932,5.082-1.356
							c1.374-0.424,2.307-0.681,2.326-0.766c-3.301,0.735-1.165,0.239-3.939,0.889c1.806-0.689,6.137-1.68,7.94-1.962
							c-0.832,0.153-0.509,0.124-0.681,0.211c3.983-0.695,1.866-0.537,4.722-1.176c0.95,0.042,6.38-1.024,9.058-1.189
							c0,0,0.238-0.05,0.595-0.126c0.357-0.082,0.834-0.174,1.312-0.251c0.957-0.167,1.913-0.334,1.913-0.334
							c-2.102,0.395,3.704-0.263,4.336-0.062c2.763-0.343,5.107-0.67,9.349-0.597c-1.75,0.081,3.862,0.222,3.926,0.444
							c7.201,0.497,11.985,0.201,18.735,1.332c-0.217,0.021-1.599-0.024,0.37,0.296c1.563,0.154,4.288,0.525,5.944,0.791
							l-0.053-0.002c0.032,0.003,0.053,0.005,0.087,0.008c0.814,0.118,1.329,0.173,1.357,0.125c2.874,0.234,4.369,0.288,9.969,1.162
							c-0.354-0.344-5.086-1.093-7.137-1.388l-1.809-0.044c-1.631-0.635-5.055-0.75-6.333-1.02c1.721-0.014,4.99,0.443,8.565,0.958
							c1.781,0.295,3.638,0.603,5.412,0.897c1.771,0.305,3.458,0.596,4.91,0.846c-3.43-1.096-11.103-2.593-17.866-3.515
							c0,0,0.738,0.141,1.478,0.281c0.736,0.154,1.472,0.308,1.472,0.308s-0.881-0.139-1.762-0.278
							c-0.885-0.119-1.77-0.237-1.77-0.237s0.847,0.18,1.694,0.359c0.842,0.2,1.685,0.399,1.685,0.399
							c-1.661-0.304-3.227-0.49-4.748-0.69c-1.522-0.192-3.001-0.399-4.522-0.556c3.559,0.396,4.883,0.971,2.891,0.631
							c-3.922-0.741-4.145-0.315-7.165-0.675c1.684,0.206,3.873,0.449,2.446,0.434c-2.963-0.498-4.872-0.631-6.703-0.818
							c-1.83-0.202-3.606-0.283-6.338-0.588c0.333,0.21-1.378,0.14-3.285,0.127c-0.952-0.01-1.95-0.021-2.763-0.03
							c-0.814,0.02-1.442,0.083-1.647,0.167c0,0,0.639-0.004,1.278-0.008c0.637,0.016,1.273,0.033,1.273,0.033
							c0,0-1.35,0.028-2.704,0.135c-1.351,0.088-2.702,0.177-2.702,0.177c-5.009-0.119,4.417-0.566-3.205-0.408
							c-7.018,0.454-6.772,0.917-12.236,1.642c0.882-0.235,2.403-0.543,4.257-0.862c1.858-0.285,4.042-0.532,6.266-0.696
							c0,0-0.68,0.002-1.351,0.042c-0.673,0.032-1.346,0.063-1.346,0.063c1.391-0.319,7.59-0.676,10.674-0.649
							c-5.095,0.383,2.393-0.005,4.688,0.337c0.431-0.226-2.834-0.247,1.024-0.366c-3.612-0.061-4.134-0.086-8.753-0.057
							c4.993-0.095,7.215-0.163,9.305-0.337c1.042-0.066,2.04-0.091,3.323-0.088c1.283,0.006,2.849,0.054,4.998,0.297
							c-3.981-0.217,1.36,0.448,1.825,0.599c1.874,0.089,5.639,0.506,7.199,0.599l-1.365-0.488c2.514,0.177,4.161,0.606,5.919,0.941
							c1.759,0.335,3.595,0.741,6.478,1.021c0.775-0.081-5.013-0.868-3.979-0.742c1.962,0.258,3.605,0.515,5.073,0.774
							c1.465,0.268,2.747,0.577,4.003,0.872c2.515,0.579,4.885,1.286,8.288,2.113c0.409-0.016,0.377-0.26,2.805,0.114
							c-0.794,0.027,0.95,0.529-1.768,0.064c2.262,0.608,5.003,1.054,7.028,1.467c-2.354-0.628-1.858-0.568-0.649-0.372
							c1.201,0.223,3.104,0.621,3.555,0.67c2.444,0.644-0.797,0.01-2.317-0.308c1.955,0.544,4.219,1.406,5.408,1.401
							c0.02,0.235-5.62-0.875-9.294-1.631l2.458,0.595c-1.723-0.283-2.034-0.382-4.474-0.971c2.359,0.705,2.081,0.829,1.49,0.85
							c-0.307-0.102,0.186-0.009-0.107-0.107c-1.956-0.5-3.479-0.786-3.047-0.571c-1.829-0.122,2.69,0.794,3.989,1.235
							c1.011,0.21,2.023,0.415,3.008,0.648c0,0,2.599,0.41,5.196,0.819c2.592,0.46,5.185,0.92,5.185,0.92
							c2.184,0.517,3.727,1.039,5.14,1.5c1.408,0.48,2.682,0.918,4.264,1.502l0.954,0.042c3.726,1.168,7.187,2.432,4.719,1.932
							c-0.108-0.122-0.601-0.274-1.406-0.535c-0.116-0.002-0.311-0.038-0.551-0.093c-0.081-0.007-0.13-0.011-0.198-0.017
							c4.001,1.197,6.476,2.026,6.71,2.08c-6.832-1.927-0.478,0.31-1.743,0.342c0,0,1.709,0.521,3.403,1.09
							c1.692,0.573,3.386,1.146,3.386,1.146c-4.029-1.601-0.003-0.227,1.467,0.24c0.32,0.355,5.387,2.046,7.709,3.009l-0.189-0.024
							c2.116,0.969,5.901,2.471,8.568,3.617c-0.09-0.126,3.489,0.989,5.203,1.568c-4.484-2.206-1.766-1.022-2.059-1.345
							c0.466,0.226,1.304,0.631,1.416,0.648c0.677,0.243-0.84-0.5-0.935-0.634c-2.453-1.026-4.928-2.099-7.073-2.931
							c-2.15-0.817-3.948-1.458-5.012-1.711c1.447,0.764,2.621,0.921,4.267,1.711c-1.259-0.395-2.666-0.925-4.268-1.568
							c-1.607-0.624-3.422-1.328-5.473-2.124l-1.276-0.708l-4.203-1.399c1.772,0.532,0.806-0.07,5.184,1.502
							c-0.48-0.414-4.351-1.534-7.005-2.568l-1.468-0.208c0.581,0.036-5.184-1.938-1.015-0.751c0,0,1.692,0.493,3.37,1.038
							c1.677,0.546,3.354,1.092,3.354,1.092l-1.782-0.841c0,0,1.408,0.494,2.816,0.988c1.412,0.481,2.804,1.023,2.804,1.023
							l-1.364-0.375c9.01,3.295,2.461,1.458,11.51,4.827c2.897,0.911,5.92,2.135,11.237,4.779c-3.914-1.768-0.499,0.021-2.041-0.496
							c3.906,1.963,5.311,2.464,7.408,3.357c0.916,0.659,1.558,1.144-1.92-0.646c-0.598,0.091,4.616,2.274,4.734,2.819
							c2.861,1.519,4.865,2.583,6.482,3.441c1.632,0.82,2.879,1.413,4.156,2.103c1.274,0.693,2.646,1.356,4.406,2.541
							c0.885,0.585,1.884,1.268,3.046,2.091c1.161,0.826,2.432,1.887,3.935,3.092l-0.553-0.231c0.491,0.364,0.971,0.718,1.438,1.063
							c0.452,0.371,0.893,0.732,1.323,1.086c0.857,0.713,1.677,1.394,2.469,2.052c1.521,1.408,2.944,2.711,4.282,4.085
							c0.653,0.707,1.303,1.411,1.958,2.121c0.326,0.357,0.654,0.716,0.985,1.078c0.309,0.387,0.621,0.777,0.937,1.172
							c0.632,0.791,1.279,1.601,1.951,2.44c0.615,0.906,1.252,1.847,1.922,2.833c0,0,0.234,0.405,0.587,1.013
							c0.289,0.631,0.673,1.472,1.058,2.312c0.381,0.839,0.761,1.678,1.046,2.307c0.142,0.313,0.26,0.574,0.342,0.758
							c0.067,0.188,0.106,0.296,0.106,0.296c-0.76-1.462-3.076-5.209-2.283-3.306c-0.341-0.822-0.641-1.68-1.109-2.475
							c-0.471-0.795-0.967-1.591-1.475-2.391c-0.259-0.395-0.499-0.812-0.779-1.19l-0.857-1.128
							c-0.572-0.757-1.144-1.523-1.703-2.307c-0.32-0.24,0.598,1.027,0.971,1.596c-1.4-1.843-2.112-2.735-4.205-4.923
							c0.044,0.164,2.21,2.645,0.489,0.857c0,0-0.163-0.198-0.409-0.496c-0.24-0.304-0.574-0.692-0.93-1.056
							c-0.698-0.745-1.396-1.49-1.396-1.49c-2.006-1.861-2.649-2.127-3.315-2.558c-0.337-0.209-0.691-0.442-1.261-0.885
							c-0.57-0.438-1.337-1.112-2.589-2.072c1.088,0.505,3.116,1.85,5.041,3.406c-1.098-0.959-0.335-0.356,0.461,0.261
							c0.775,0.646,1.562,1.339,0.632,0.364c-1.681-1.29-2.903-2.248-4.222-3.375c-1.357-1.062-2.852-2.236-5.145-3.8
							c0.563,0.329,0.732,0.392,1.833,1.204c0,0-0.396-0.312-0.991-0.781c-0.597-0.464-1.423-1.034-2.235-1.626
							c-0.817-0.587-1.634-1.174-2.246-1.614c-0.611-0.443-1.037-0.705-1.037-0.705c1.563,1.23-5.679-3.411-5.22-2.718
							c3.587,2.29,4.858,3.092,6.235,4.01c0.681,0.473,1.392,0.967,2.432,1.69c0.515,0.37,1.124,0.777,1.825,1.312
							c0.694,0.545,1.504,1.181,2.465,1.935c-1.128-0.798-2.406-1.739-3.661-2.453c-1.245-0.73-2.39-1.361-3.143-1.726
							c-0.062-0.057-0.173-0.144-0.415-0.318c-1.369-0.611-0.166,0.301-0.458,0.683c3.811,2.219,6.075,4.119,10.196,7.312
							c0.46,0.217-0.065-0.336-0.962-1.148c-0.889-0.821-2.231-1.782-3.273-2.554c0,0,0.94,0.662,1.881,1.325
							c0.954,0.645,1.851,1.377,1.851,1.377l-0.771-0.494c0,0,0.556,0.477,1.39,1.191c0.818,0.734,1.976,1.627,3.021,2.664
							c1.058,1.02,2.116,2.039,2.91,2.805c0.747,0.817,1.245,1.362,1.245,1.362c-1.511-1.658-2.213-2.016-3.121-2.742
							c0.544,0.524,1.076,1.056,1.608,1.6c0.495,0.583,0.997,1.175,1.515,1.784c-0.045-0.415,0.227-0.381,1.233,0.715
							c0.659,0.682,1.2,1.409,1.722,2.084c0.519,0.677,1.007,1.314,1.469,1.917c0.882,1.238,1.548,2.423,2.177,3.431
							c0.15,0.257,0.309,0.499,0.438,0.746c0.115,0.252,0.228,0.496,0.336,0.733c0.212,0.475,0.409,0.919,0.596,1.337
							c0.365,0.837,0.668,1.567,0.926,2.219c0.139,0.255,0.295,0.544,0.421,0.775c-0.094-0.307,0.062-0.183,0.311,0.233
							c0.233,0.422,0.58,1.127,0.971,1.94c0.388,0.818,0.824,1.736,1.228,2.586c0.432,0.843,0.667,1.667,0.923,2.204
							c-0.143-0.016,0.105,0.933,0.45,2.15c0.169,0.609,0.378,1.283,0.546,1.943c0.135,0.668,0.259,1.316,0.343,1.855
							c0.272,0.531,0.428,0.399,0.472-0.204c0.021-0.598,0.039-1.688-0.271-3.003c-1.791-4.88-1.072-2.714-2.236-4.893
							c0,0-0.833-1.896-1.665-3.791c-0.381-0.96-0.906-1.859-1.289-2.537c-0.38-0.679-0.633-1.132-0.633-1.132l1.07,1.54
							c-0.453-0.934-0.928-1.848-1.377-2.689c-0.452-0.84-0.848-1.622-1.305-2.221c-0.846-1.229-1.361-2.002-1.147-1.963
							c0.352,0.433,0.735,0.954,1.135,1.521c0.198,0.284,0.402,0.578,0.609,0.877c0.201,0.301,0.354,0.632,0.533,0.95
							c0.692,1.283,1.382,2.566,1.98,3.495l-1.174-2.511c1.262,2.101,1.497,2.692,1.747,3.405c0.203,0.733,0.442,1.581,1.638,4.269
							c-0.278-1.051-0.225-0.93,0.038-0.26c0.133,0.335,0.32,0.805,0.533,1.339c0.173,0.545,0.376,1.149,0.603,1.737
							c-0.241-2.048-3.894-9.619-2.798-8.168c0.438,0.655,0.786,1.632,1.202,2.738c0.397,1.11,0.845,2.361,1.303,3.641
							c0.348,1.308,0.708,2.64,1.082,3.88c0.187,0.62,0.379,1.217,0.57,1.777c0.149,0.568,0.306,1.1,0.47,1.579l-0.093-0.182
							c0.307,1.456,0.579,2.671,0.826,3.71c0.268,1.037,0.362,1.914,0.535,2.667c0.303,1.509,0.565,2.561,0.809,3.651
							c0.067,1.261,0.189,2.75,0.362,4.266c0.077,0.757,0.183,1.521,0.242,2.267c0.038,0.744,0.075,1.469,0.11,2.146l-0.134-0.062
							l0.177,3.826c-0.146-0.909-0.183-2.029-0.197-3.334c-0.023-1.305,0.023-2.795-0.17-4.44l-0.21,0.426
							c-0.021-1.903-0.184-3.484-0.429-4.942c-0.34-1.439-0.661-2.797-1.001-4.234c0.211,1.053,0.423,2.331,0.633,3.67
							c0.218,1.338,0.276,2.743,0.417,4.043c0.291,2.601,0.368,4.79,0.628,5.283l-0.162,2.646c0,0,0.032,0.315,0.064,0.63
							c0.037,0.315,0.046,0.63,0.046,0.63c-0.225,1.959-0.416-0.04-0.638-3.833c0.04-0.662,0.06-0.994,0.117-0.796
							c-0.125-1.761-0.498-3.362-0.804-7.626l0.326,2.261c-0.151-2.66-0.651-5.18-0.987-7.262c-0.153-1.043-0.417-1.962-0.628-2.733
							c-0.213-0.772-0.402-1.395-0.56-1.828c1.625,7.56,2.189,15.109,2.232,22.27c0.518,2.108,0.821,4.641,1.28,5.743
							c-0.113,4.836-0.57,11.384-1.323,15.49l-0.056-0.394c-0.275,2.019-0.515,3.873-0.685,5.425
							c-0.44,2.103-0.061-1.491-0.347-0.023c0,0-0.206,1.702-0.412,3.403c-0.236,1.694-0.472,3.39-0.472,3.39
							c-0.08-0.229,0.113-1.762,0.38-3.575c0.249-1.82,0.537-3.926,0.723-5.281c-0.054,0.514-0.164,1.552-0.086,1.225
							c0.569-3.141,0.839-9.097,1.263-10.462c0.08-1.561-0.034,3.183,0.453-2.082c0.426-3.522,0.11-4.708,0.053-5.078
							c-0.115-0.061-0.506,5.538-0.539,3.583c-0.245,2.733-0.115,3.852-0.634,7.325c0.3-2.703,0.324-6.413,0.646-7.843
							c0.048-5.405-0.615-4.646-0.786-2.126c0.094-0.298,0.084,2.158-0.026,3.796c-0.079,1.641-0.079,2.485,0.359-1.012
							c-0.021,1.584-0.14,3.821-0.322,6.175c-0.241,2.342-0.449,4.817-0.68,6.87l-0.022-0.193l-0.677,5.083
							c0.048-0.723,0.201-2.268,0.081-2.336c0.001,0-0.146,1.773-0.361,3.532c-0.201,1.763-0.402,3.526-0.402,3.526
							c0.423-3.975-0.564,2.413-1.018,4.169c0.063,0.781-0.284,3.529,0.303,0.939c0.676-2.909,0.202-1.729,0.67-4.399l-0.371,3.836
							l-0.089,0.319l-0.165,2.32c-1.008,5.125-0.164-2.354-1.181,4.264l0.514-0.786c-0.379,1.899-0.83,3.926-1.282,5.985
							c-0.274,1.056-0.551,2.12-0.826,3.18c-0.273,1.062-0.55,2.116-0.901,3.128c-0.328,1.018-0.65,2.019-0.963,2.988
							c-0.311,0.971-0.702,1.882-1.021,2.768c-0.33,0.883-0.644,1.724-0.937,2.509c-0.322,0.773-0.623,1.493-0.896,2.147
							c0.44-1.515,0.409-2.258-0.619-0.381c0.251-0.553,0.563-1.243,0.915-2.018c0.313-0.791,0.633-1.68,0.972-2.595
							c0.718-1.819,1.287-3.824,1.768-5.49c0.126-0.311-0.085,0.755-0.477,2.354c-0.176,0.806-0.468,1.722-0.793,2.66
							c-0.319,0.94-0.665,1.905-1.01,2.786c0.566-0.76,1.377-3.018,1.959-5.148c0.549-2.143,1.076-4.1,1.39-4.249
							c0.605-2.333,1.024-3.976,1.223-5.176c0.202-1.203,0.3-2.029,0.393-2.812c0.19-1.562,0.346-2.949,1.269-6.818
							c-0.234-0.155,0.278-2.251,0.126-2.704c-0.413,1.124-0.9,3.733-1.438,6.688c-0.554,2.961-1.078,6.238-1.827,8.815
							c0.103-0.508,0.308-1.528,0.307-1.736c-0.464,1.83-0.79,3.119-1.082,4.274c-0.326,1.143-0.591,2.157-0.926,3.434l0.125-0.309
							c-0.254,1.128-0.501,1.842-0.694,2.332c-0.188,0.491-0.325,0.759-0.452,0.966c-0.254,0.414-0.47,0.589-0.99,1.837
							c-0.312,1.003-1.936,4.399-1.503,3.932c0,0-0.137,0.274-0.342,0.686c-0.193,0.418-0.504,0.948-0.812,1.479
							c-0.612,1.062-1.225,2.124-1.225,2.124l0.367-0.073c-0.313,0.617-0.567,1.113-0.811,1.533c-0.26,0.41-0.481,0.761-0.698,1.104
							c-0.434,0.687-0.831,1.354-1.394,2.48l0.165,0.239c0,0,0.896-1.475,1.793-2.948c0.467-0.728,0.854-1.5,1.157-2.072
							c0.303-0.572,0.504-0.954,0.504-0.954c-1.543,3.146-0.148,1.025-2.052,4.383c1.923-3.865-1.638,2.577-2.134,2.758
							l-1.459,2.426l0.348-0.64c-0.683,0.877-1.015,1.45-1.405,2.039c-0.399,0.583-0.817,1.211-1.62,2.228
							c2.003-2.308,3.291-3.877,5.237-7.265c-0.645,1.272-1.828,3.034-2.848,4.689c-1.085,1.608-2.154,3.007-2.563,3.566
							c-0.841,1.244-1.74,2.146-2.571,3.071c-0.851,0.908-1.661,1.82-2.665,2.787c0.924-0.966,1.229-1.435,1.329-1.671
							c0.102-0.234-0.009-0.245-0.004-0.376c0.006-0.131,0.128-0.381,0.692-1.095c0.548-0.729,1.628-1.841,3.253-3.959
							c-0.08,0.188-0.616,0.866-0.844,1.112c0.564-0.459,1.538-1.735,2.528-3.133c0.936-1.438,1.837-3.03,2.435-4.02
							c-0.495,0.387,0.812-1.634-1.562,1.69c0.427-0.52,0.035,0.253-0.756,1.552c-0.822,1.273-2.142,3.005-3.387,4.499
							c0,0,0.098-0.8,0.098-0.801c0,0.001-0.204,0.288-0.555,0.685c-0.35,0.396-0.815,0.925-1.28,1.453
							c-0.932,1.057-1.863,2.113-1.863,2.113l0.331-0.412c-1.626,1.372-4.069,4.421-7.077,6.87
							c-0.936,1.051-3.584,3.143-5.438,4.745c-1.938,1.49-3.12,2.464-1.137,1.265c-1.486,0.913-2.744,1.955-4.109,2.913
							c-1.358,0.968-2.716,2.017-4.294,3.064c0,0,0.263-0.136,0.637-0.374c0.377-0.232,0.88-0.543,1.384-0.853
							c1.007-0.621,2.015-1.243,2.015-1.243c-4.489,3.364-3.247,2.307-6.84,5.029c-0.446,0.137-1.349,0.571-0.63-0.001
							c-3.245,1.895-7.273,4.036-11.075,5.79c-0.938,0.466-1.863,0.894-2.765,1.269c-0.894,0.395-1.748,0.771-2.546,1.123
							c-1.583,0.74-2.975,1.293-3.979,1.759c-1.244,0.459-2.236,0.792-3.132,1.077c-0.901,0.268-1.716,0.457-2.585,0.691
							c-0.87,0.23-1.801,0.487-2.951,0.84c-1.151,0.351-2.546,0.714-4.315,1.27c-0.744,0.239-0.427,0.251-0.517,0.354
							c-0.096,0.081-0.579,0.351-2.988,0.844c-0.326,0.049,4.519-1.399-0.786-0.095c-1.854,0.614-4.088,1.109-6.486,1.505
							c-1.195,0.214-2.427,0.435-3.67,0.658c-1.245,0.201-2.5,0.428-3.736,0.7c-2.647,0.344-7.234,0.9-6.308,0.551
							c4.196-0.418,10.078-1.491,10.949-1.771c-0.545,0.265,2.974-0.443-0.059,0.282c6.302-1.081,4.047-0.901,9.652-2.11
							c0.358-0.191-2.931,0.415-4.105,0.782c-0.048-0.16,2.687-0.858,4.802-1.414c2.116-0.556,3.58-1.092,1.087-0.588
							c-2.971,0.688-4.848,1.351-6.66,1.858c-1.815,0.48-3.538,0.968-6.177,1.236c1.031-0.254,2.357-0.557,3.756-0.856
							c1.395-0.323,2.87-0.609,4.134-1.124c0,0-1.062,0.231-2.135,0.395c-1.07,0.179-2.141,0.357-2.141,0.357
							s-0.76,0.216-1.52,0.431c-0.76,0.222-1.524,0.417-1.524,0.417l0.176-0.08c-3.81,0.447-5.533,0.874-7.174,1.209
							c-1.639,0.337-3.163,0.834-6.571,1.244c3.986-0.155-0.854,0.688,2.146,0.531c-2.29,0.257-4.278,0.446-5.701,0.539
							c-1.423,0.085-2.282,0.022-2.31-0.141c2.14-0.202,3.231-0.411,3.797-0.509c0.565-0.108,0.602-0.159,0.617-0.211
							c0.029-0.11-0.016-0.188,3.906-0.782c-0.652,0.022-0.198-0.164-0.168-0.284c0.03-0.117-0.361-0.164-2.708,0.04
							c-5.264,0.767,1.611,0.13-3.655,0.764c-0.314,0.002-0.642-0.015-0.461-0.075c-2.419,0.349-2.841,0.134-5.771,0.536
							l0.693-0.117c-3.64-0.007-3.962,0.421-7.098,0.338c1.259,0.223-2.094,0.256-4.033,0.445c3.174,0.048,4.906,0.39,11.181,0.037
							c0.744-0.255,0.28-0.335,2.844-0.611c0,0-1.017,0.076-2.033,0.153c-1.017,0.073-2.033,0.146-2.033,0.146
							c0.876-0.077,1.541-0.188,2.343-0.28l3.915-0.168c-4.944,0.49-2.657,0.547-4.753,0.904c-4.55,0.168-3.749,0.234-6.611,0.305
							c0.273-0.262-8.774-0.291-13.985-0.579c0.81,0.029,1.856,0.016,2.421,0.028c3.791-0.179-2.605-0.244-2.742-0.354l-2.761,0.081
							c0.52-0.008,1.239-0.06,0.063-0.13c-3.734-0.029-3.526,0.252-7.254,0.149c-0.271-0.176,2.885-0.288,0.575-0.474
							c-0.802-0.173-3.303-0.673-8.232-0.73c-0.352,0.048-1.631,0.03-3.116-0.013c0.207,0.001,0.466,0.007,0.559-0.001l-3.269-0.336
							c2.806-0.134,5.642,0.394,8.453,0.229l0.249-0.255c2.172,0.093,5.144,0.11,6.512,0.03c-3.327-0.185-4.025-0.156-7.743-0.255
							c-0.513-0.189,2.109-0.205,2.487-0.206l-0.561,0.127c4.418,0.391,6.638,0.096,12.156,0.252
							c0.834,0.031,0.325,0.038,0.138,0.084c4.474-0.148,8.864,0.201,13.204-0.239l-1.414,0.166
							c1.479-0.081,3.663-0.203,6.192-0.445c1.264-0.117,2.617-0.211,4.01-0.366c1.392-0.159,2.826-0.322,4.261-0.486l0.038-0.106
							c-0.644-0.018,1.516-0.152,2.673-0.246l-0.006,0.003c1.431-0.203,2.834-0.402,4.16-0.591c1.323-0.202,2.564-0.434,3.684-0.616
							c-0.728,0.03-1.653,0.097-2.71,0.219c-0.879,0.245-6.152,0.639-5.405,0.85c-2.446,0.065-6.36,0.557-8.16,0.551
							c3.279,0.023-2.264,0.365-2.833,0.534c-0.554-0.065-1.767-0.002-2.788,0.027c-1.023,0.015-1.854,0.019-1.643-0.103
							c-0.649-0.062,1.613,0.153,3-0.068c1.71-0.185,0.14-0.159-1.324-0.15c-1.466-0.02-2.823-0.04-0.692-0.183
							c-5.424,0.327-12.584,0.184-18.195,0.225l3.136,0.173c-2.492-0.057-8.393-0.293-8.828-0.418
							c1.854,0.047,4.017,0.162,6.387,0.191c0.124-0.232-5.69-0.237-5.947-0.405l-6.915,0.142l3.018,0.14
							c-1.909,0.081-8.21-0.358-12.871-0.702c2.697-0.184,7.039,0.389,11.969,0.44c3.583,0.012-2.195-0.44,1.194-0.386
							c-0.875-0.121-3.083-0.2-4.173-0.158l-1.33-0.124c3.017-0.199,9.815,0.162,14.295,0.078c-0.395,0.018-0.739,0.04-0.865,0.073
							c3.449,0.231,6.96,0.345,10.326,0.245c-1.779-0.115-2.484-0.032-3.503-0.021c-0.125-0.063,3.053-0.095,4.254-0.178
							c-3.128-0.107-0.582-0.195-2.561-0.258c2.036-0.08,3.687-0.018,6.166-0.018c1.287,0.1-1.062,0.19-0.799,0.348
							c2.553-0.16,3.733,0.256,7.468-0.069c-4.973,0.12,1.301-0.394,3-0.592l-0.832,0.024c1.564-0.256,2.897-0.317,3.991-0.232
							c-2.02,0.238-3.992,0.216-3.404,0.4c1.343-0.054,2.68-0.136,4.191-0.312l-1.37,0.235c0,0,1.664-0.126,3.328-0.252
							c1.666-0.108,3.323-0.291,3.323-0.29c1.036-0.274,2.765-0.688,3.653-1.028c1.606,0.01,3.786-0.449,5.278-0.688l-0.688,0.161
							c0.729-0.063,1.685-0.15,2.705-0.3c1.017-0.171,2.106-0.355,3.125-0.526c2.035-0.341,3.751-0.757,4.004-0.892
							c2.122-0.156-14.438,3.451,0.155,0.807c5.528-1.104,3.349-1.14,6.429-2.04c0,0-0.165,0.091,0.151,0.047
							c2.395-0.55,2.604-0.733,4.52-1.369c-1.425,0.359-3.51,0.805-4.158,1.044c0.335-0.188,1.58-0.467,2.958-0.804
							c1.367-0.374,2.874-0.78,3.755-1.11c-1.129,0.479,0.019,0.188,1.229-0.141c1.205-0.339,2.45-0.782,1.577-0.405
							c2.347-0.661,4.758-1.419,6.81-2.301c1.034-0.42,1.995-0.827,2.842-1.198c0.838-0.389,1.55-0.771,2.117-1.068
							c3.203-0.914,5.297-2.308,10.124-4.601c-0.36,0.199-0.867,0.479-1.41,0.78c-0.555,0.273-1.148,0.562-1.677,0.791
							c-1.32,0.768-0.057,0.2,1.022-0.282c0.543-0.235,1.03-0.467,1.125-0.499c0.097-0.026-0.182,0.187-1.222,0.733
							c0.891-0.468,0.005-0.148-0.907,0.331c-1.614,0.802-3.102,1.635-2.646,1.541l4.045-1.69l-1.354,0.713
							c0,0,0.384-0.162,0.959-0.405c0.579-0.237,1.346-0.567,2.089-0.946c1.503-0.73,3.005-1.461,3.005-1.461
							c0.136-0.13-0.445,0.115-0.741,0.241c0.854-0.454,1.738-0.892,2.6-1.391c0.856-0.51,1.722-1.025,2.591-1.543
							c0.863-0.529,1.752-1.027,2.597-1.591c0.842-0.566,1.683-1.133,2.517-1.694c1.692-1.093,3.258-2.304,4.779-3.441
							c1.548-1.105,2.92-2.299,4.234-3.359c0.276-0.658,3.41-3.375,6.617-6.739c0.789-0.853,1.66-1.675,2.415-2.58
							c0.761-0.899,1.514-1.787,2.227-2.63c1.393-1.71,2.486-3.346,3.238-4.463c-0.717,1.263-0.922,2.11-0.257,1.482
							c-0.357,0.49-0.857,1.27-1.485,2.199c-0.611,0.94-1.479,1.93-2.389,2.966c-0.187,0.13-0.86,0.816-1.319,1.253
							c-0.482,0.414-0.729,0.596-0.035-0.249c-5.225,5.526,0.947-0.522-0.423,1.268c1.456-1.538,2.609-3.052,3.728-4.381
							c1.038-1.395,1.934-2.695,2.785-3.903c1.582-2.502,2.904-4.694,4.13-7.045l0.139-0.074c0,0,0.119-0.221,0.297-0.551
							c0.172-0.334,0.433-0.761,0.63-1.223c0.42-0.907,0.839-1.815,0.839-1.815c-1.524,2.887-1.796,2.546,0.229-1.117l-0.214,0.462
							c1.305-2.027,3.019-6.722,4.258-10.24l0.513-2.492c0.271-0.894,0.522-1.561,0.71-2.09c0.177-0.531,0.334-0.912,0.479-1.216
							c0.292-0.607,0.539-0.904,0.807-1.47c1.324-5.802,1.583-9.343,2.173-13.553c0.567-1.857,2.068-10.711,1.512-5.98
							c0.36-2.683,0.256-3.791,0.269-5.363c0.016-1.573,0.244-3.597,1.034-8.146l-0.104,2.4c0.258-2.193,0.522-4.622,0.679-7.097
							c0.221-2.474,0.294-4.99,0.386-7.356c0.109-2.366,0.03-4.578,0.074-6.454c0.004-1.874-0.086-3.401-0.056-4.411
							c0.188,0.8,0.3,0.518,0.372-0.386c0.036-0.451,0.062-1.058,0.083-1.762c-0.022-0.701-0.048-1.496-0.075-2.329
							c-0.028-3.351-0.555-7.248-0.338-8.081c-0.046,0.229-0.177-0.478-0.367-1.286c-0.218-0.802-0.451-1.717-0.54-1.942
							c-0.083-0.719-0.271-1.911-0.671-3.124c0.608,3.359-1.151-2.176,0.494,4.11c-0.283-0.781-0.573-1.617-0.87-2.542
							c-0.145-0.464-0.295-0.947-0.453-1.455c-0.187-0.499-0.382-1.021-0.587-1.572c-0.407-1.102-0.833-2.319-1.283-3.687
							c-0.569-1.319-1.179-2.78-1.83-4.422l0.281-0.009c0,0,0.505,1.31,1.009,2.619c0.252,0.654,0.503,1.309,0.691,1.799
							c0.146,0.508,0.243,0.847,0.243,0.847c0.019-0.607,0.848,2.176,1.282,3.293c-0.73-2.524-1.031-3.721-1.126-4.252
							c-0.125-0.52-0.006-0.388,0.118-0.265c0.241,0.25,0.451,0.482-1.583-4.53c-0.54-0.899-0.233-0.299-1.562-2.757
							c0.612,1.16,0.886,1.293-0.09-0.594l-1.12-1.705c-0.815-1.684,0.144-0.47,0.899,0.984c0.799,1.421,1.622,2.919,1.015,1.416
							c1.162,1.763,2.191,4.461,3.124,6.444c0.825,2.024,1.296,3.452,1.279,2.738c-0.238-0.836-0.454-1.553-0.654-2.182
							c-0.233-0.617-0.479-1.134-0.689-1.602c-0.43-0.932-0.796-1.634-1.164-2.343c-0.182-0.355-0.364-0.714-0.561-1.099
							c-0.222-0.375-0.459-0.776-0.727-1.23c-0.528-0.914-1.145-2.061-1.938-3.674c0,0-0.066-0.183-0.143-0.358
							c-0.075-0.178-0.15-0.355-0.15-0.355c-0.74-1.025-1.213-1.589-1.609-2.028c-0.199-0.216-0.377-0.407-0.562-0.607
							c-0.203-0.187-0.413-0.385-0.655-0.632c-0.013-0.146-0.362-0.684-1.352-1.966c-0.7-0.8-1.453-1.44-2.117-2.086
							c-0.671-0.638-1.305-1.24-1.931-1.836c-1.346-1.103-2.603-2.229-4.205-3.377c1.029,0.811,1.809,1.605,2.541,2.256
							c0.706,0.672,1.354,1.216,1.843,1.773c1.003,1.096,1.739,1.939,2.48,2.789c1.337,1.811,2.909,3.481,5.613,8.007
							c-0.355-0.765-1.685-2.6-2.909-4.311c-1.381-1.625-2.699-3.095-2.978-3.153l0.264-0.096c-1.238-1.216-2.41-2.479-3.762-3.735
							c-1.382-1.229-2.752-2.619-4.437-4.029c0,0,0.535,0.403,1.07,0.808c0.547,0.393,1.048,0.832,1.048,0.832
							c-1.092-0.952-2.144-1.777-3.073-2.612c-0.925-0.843-1.838-1.584-2.725-2.296c-0.887-0.713-1.736-1.413-2.633-2.058
							c-0.914-0.623-1.854-1.219-2.864-1.787c1.322,0.956,2.431,1.686,3.261,2.253c-1.252-0.837-2.675-1.769-4.094-2.759
							c-1.425-0.982-2.936-1.908-4.299-2.821c0,0-0.372-0.205-0.931-0.513c-0.57-0.289-1.329-0.675-2.089-1.061
							c-1.52-0.766-3.038-1.533-3.038-1.533c0.126-0.097-3.665-2.158-1.734-1.348c-4.193-2.561-6.489-3.179-9.032-4.42
							c-2.214-1.197-1.21-0.773,0.409-0.031c1.605,0.767,3.833,1.836,4.137,1.786c-6.082-3.343-12.899-6.184-16.588-7.513
							c1.29,0.588,1.89,0.931,1.802,0.954c-0.15-0.179-2.739-1.241-4.185-1.83l-1.056-0.25c-2.356-1.098-1.982-1.053,0.11-0.329
							c-2.274-1.008-5.18-1.714-7.473-2.883c2.013,0.675,4.278,1.515,6.278,2.328c1.995,0.827,3.751,1.564,4.799,1.927
							c-4.129-1.622-6.144-2.589-8.469-3.597c-2.311-1.042-4.925-2.143-10.278-3.903c-0.104-0.122,1.757,0.337-0.301-0.359
							c-4.79-1.548-1.358-0.085-2.908-0.406c1.85,0.569,3.194,1.017,4.33,1.448c1.129,0.45,2.053,0.868,3.07,1.351l-1.017-0.219
							c-0.125-0.115-2.398-0.964-3.06-1.241l-0.684,0.068c0.372-0.19-3.221-1.701-6.171-2.507c2.873,1.144,2.072,0.909,2.76,1.502
							c-2.079-0.538-3.218-0.944-4.406-1.413c-1.194-0.446-2.438-0.963-4.8-1.457c0.38-0.014,4.411,1.157,0.967,0.018
							c-2.88-0.855-2.564-0.508-4.518-0.998c2.249,0.385,1.743,0.035,4.194,0.428c5.119,1.533,2.058,0.639,7.079,2.088l-4.153-1.537
							c4.336,1.318,3.235,0.703,3.622,0.72c-7.312-2.586-5.691-1.355-10.448-2.83c-2.353-0.5,4.467,1.344,0.811,0.471
							c-4.458-1.336-1.063-0.143-6.128-1.412l0.875,0.112c-1.503-0.556-3.068-0.817-4.87-1.221c-1.988-0.404,2.005,1.415-6.087-0.54
							c0.415,0.019,0.571,0.007,0.579-0.022c0,0,0.525-0.014,1.313-0.034c0.79-0.016,1.843-0.037,2.896-0.058
							c1.058-0.02,2.115-0.039,2.909-0.054c0.792,0,1.32,0,1.32,0c-8.219-2.153-17.755-4.403-27.445-6.142
							c-1.111-0.382,0.645-0.233,2.594,0.081c1.951,0.296,4.11,0.661,3.832,0.511c0,0,1.104,0.218,2.198,0.475
							c1.098,0.247,2.194,0.495,2.194,0.495c-0.144,0.071-2.448-0.412-4.238-0.713c-1.793-0.295-3.056-0.476-1.09,0.046
							c7.812,1.386,11.285,2.345,18.678,3.808c-2.166-0.997-9.651-2.296-14.397-3.535c2.009,0.45,3.728,0.723,5.384,1.053
							c-2.237-0.55-4.576-1.013-6.98-1.551c-2.413-0.499-4.911-0.98-7.487-1.468l-1.18-0.083c3.48,0.606,5.867,1.136,6.177,1.191
							c-4.594-0.917-8.541-1.254-8.892-1l0.817,0.142l-1.682-0.169C165.604,6.508,164.519,6.363,163.442,6.191z M29.417,193.955
							c-0.127-0.256-0.238-0.453-0.337-0.593C29.182,193.506,29.143,193.316,29.417,193.955z M251.284,31.286
							c-5.608-2.783-11.403-5.293-16.972-7.566c2.472,1.131,4.723,2.258,6.483,3.114c1.748,0.889,2.978,1.577,3.396,1.862
							c0.82,0.609-1.562-0.466-9.932-3.839l-1.119-0.383c2.182,0.909,5.93,2.472,9.461,3.945c1.458,0.528,4.57,1.583,7.261,2.626
							c1.349,0.512,2.619,0.962,3.525,1.324c0.908,0.359,1.479,0.576,1.462,0.548c-0.9-0.664-2.423-1.208-4.217-2.096
							L251.284,31.286z M254.808,34.181c3.118,1.657,2.465,1.171,3.011,1.309c-1.116-0.548-2.231-1.095-3.334-1.636
							C254.89,34.095,255.076,34.238,254.808,34.181z M257.688,35.285c-0.354-0.182-0.653-0.34-0.804-0.435L257.688,35.285z
							 M193.3,11.484c0.153,0.035,0.209,0.047,0.354,0.081c-0.809-0.211-1.619-0.423-2.465-0.643
							C191.514,11.023,192.137,11.194,193.3,11.484z M200.175,13.573l0.869,0c-0.75-0.211-1.515-0.427-2.298-0.648
							C198.979,13.094,199.227,13.253,200.175,13.573z M221.97,21.048c1.46,0.217,6.034,1.87,6.427,1.672
							c0.319,0.03-0.633-0.347-1.705-0.762c-1.204-0.443-2.488-0.916-3.852-1.417c-0.062,0.024-0.348-0.031-0.818-0.144
							c1.344,0.5,2.212,0.916,1.604,0.895c-3.335-1.622-3.22-0.784-6.948-2.167C215.409,18.932,220.799,20.748,221.97,21.048z
							 M210.103,232.067c-0.116-0.005-0.511,0.002-1.062,0.022l2.718-0.701c2.463-0.423,4.678-0.827,6.824-1.272
							c2.156-0.399,4.198-1.021,6.313-1.799c2.062-0.451,3.174-0.68,4.261-0.828c-0.988,0.3-1.913,0.58-2.686,0.814
							c-3.001,0.996-4.914,1.581-6.248,1.9c-1.34,0.296-2.088,0.392-2.762,0.464s-1.274,0.121-2.32,0.323
							C214.093,231.185,212.584,231.464,210.103,232.067z M263.328,211.028c-0.42,0.304-0.547,0.45-0.547,0.45
							c9.012-6.757,15.387-13.454,19.313-17.993c-0.234,0.184-0.639,0.567-1.141,1.07c-0.499,0.505-1.092,1.13-1.769,1.735
							c-1.341,1.223-2.714,2.65-3.712,3.452c0,0,0.377-0.423,0.734-0.864c0.348-0.451,0.694-0.901,0.694-0.901l1.128-0.865
							c0,0,0.64-0.743,1.279-1.485c0.329-0.362,0.616-0.762,0.842-1.052c0.223-0.292,0.371-0.486,0.371-0.486
							c-0.795,0.753-3.012,2.997-4.562,4.42c-0.074,0.177-4.831,4.985-6.272,6.237c0,0,1.075-0.827,2.15-1.654
							c0.549-0.402,1.045-0.864,1.436-1.19c0.386-0.332,0.643-0.553,0.643-0.553c-0.282,0.234-0.822,0.717-1.506,1.341
							c-0.712,0.591-1.579,1.311-2.479,2.058c-1.762,1.543-3.809,3.009-4.928,3.899c0.023,0.136,4.141-2.613,4.393-3.293
							c0.282-0.117-0.654,0.752-1.34,1.336c-0.691,0.574-1.081,0.931,0.43-0.062c-3.27,2.762-8.961,6.525-11.771,7.969l-0.625-0.005
							c-3.018,1.674-1.792,1.563-5.494,3.359c4.403-2.465-0.919,0.093,2.591-1.842c-1.184,0.503-0.193-0.288-3.699,1.646
							c-1.353,1.009-2.347,1.39-3.311,1.766c-0.964,0.379-1.905,0.739-3.247,1.592c-1.977,0.732,1.969-1.134-1.85,0.456
							c-4.277,2.062-3.973,2.104-4.134,2.496c2.082-0.797,3.188-1.403,4.207-1.939c0.508-0.272,0.994-0.53,1.561-0.813
							c0.556-0.305,1.194-0.628,2.022-1.003c0,0-0.394,0.226-0.983,0.563c-0.586,0.35-1.382,0.787-2.194,1.188
							c-1.618,0.832-3.236,1.663-3.236,1.663c1.262-0.451,2.178-0.831,2.935-1.176c-1.332,0.599-2.443,1.156-3.382,1.673
							c-0.531,0.302-1.045,0.522-1.511,0.752c1.944-0.7,3.71-1.533,5.122-2.083c1.41-0.556,2.396-0.994,2.715-1.078l-0.451,0.385
							c1.382-0.506,3.494-1.637,4.437-2.211c3.266-1.752,6.41-3.699,7.178-3.987l-1.135,0.846
							C258.104,214.44,258.582,214.248,263.328,211.028z M302.274,75.923c0.107,0.703,0.316,1.386,0.43,2.272
							c0.138,0.879,0.335,1.909,0.643,3.229c0.138,0.665,0.369,1.385,0.514,2.227c0.159,0.839,0.337,1.771,0.536,2.817
							c0.491,2.073,0.794,4.649,1.297,7.813l-0.187-0.992c0.434,6.418,1.508,12.546,0.792,20.415
							c0.021-1.91-0.068-2.813-0.122-3.766c-0.077-0.952-0.152-1.956-0.399-4.049c0,0,0.029,0.254,0.034,0.636
							c0.009,0.382,0.021,0.892,0.034,1.401c0.025,1.02,0.05,2.04,0.05,2.04c-0.144-0.568-0.19,0.166-0.208,1.414
							c-0.003,1.248-0.11,3.012-0.185,4.506l-0.218-2.652c0.214-1.785,0.255-6.431,0.189-6.294c0.007,0.254,0.044-0.002,0.095-0.59
							c0.031-0.588,0.048-1.507,0.062-2.58c0.01-1.073,0.023-2.303-0.005-3.504c-0.078-1.197-0.173-2.37-0.283-3.335
							c-0.116,0.213,0.071,2.352,0.103,3.992c-0.003,1.644-0.041,2.775-0.301,0.96c0.251,3.211,0.108,3.611,0.117,6.978
							c-0.136-3.227-0.294-0.803-0.496-3.194c0,0,0.027,0.342,0.029,0.857c0.001,0.516,0.001,1.203,0.002,1.891
							c0.002,1.376,0.003,2.752,0.003,2.752c-0.084,0.137-0.068-8.007-0.433-3.506c0.041,1.099,0.027,3.115-0.019,4.871
							c-0.088,1.757-0.143,3.254-0.015,3.314l-0.088,0.13c-0.129,2.058-0.082,2.517-0.057,3.094c0.03,0.576,0.039,1.271-0.262,3.794
							c0.127,0.073,0.304-0.884,0.438-2.701c0.079-1.539-0.056-1.787,0.064-4.946c0.282-1.404-0.232,3.809,0.234,1.638
							c0.116-0.54,0.192-2.631,0.272-4.294c0.045-1.662,0.056-2.898,0.243-1.736c0,0-0.007,0.258-0.018,0.645
							c-0.006,0.387-0.025,0.902-0.068,1.418c-0.07,1.031-0.141,2.062-0.141,2.062c0.258,0.119,0.081,3.112,0.298,3.044
							c-0.14,2.536-0.592,4.896-0.678,7.494c0.042,1.089,0.58-0.744-0.065,3.508c-0.401,1.642-0.938,4.91-1.493,8.221
							c-0.559,3.312-1.124,6.665-1.433,8.494l-0.438,3.223c0.229-0.238,1.114-6.105,0.943-4.017c0,0-0.213,1.249-0.427,2.498
							c-0.225,1.248-0.448,2.495-0.448,2.495l-0.026-0.403c-0.337,1.646-0.559,3.353-0.807,4.866
							c0.131-1.585,0.895-5.157,0.487-4.497c-0.502,2.325-0.675,2.66-1.054,4.816c0.075-0.472,0.129-0.881,0.079-0.829
							c-1.038,4.705-0.681,4.585-0.85,5.787c-0.776,4.778,1.47-4.65,1.529-4.021c0,0-0.149,0.873-0.427,2.17
							c-0.308,1.291-0.668,3.026-1.113,4.739c-0.507,1.696-0.96,3.412-1.387,4.67c-0.444,1.253-0.74,2.088-0.74,2.088
							c0.333-1.168,0.668-2.339,0.404-1.947c-1.335,3.2-0.178,0.022-1.938,4.545c0.243-0.087-0.315,1.339-1.083,3.195
							c-0.383,0.929-0.92,1.915-1.382,2.899c-0.479,0.976-0.9,1.942-1.315,2.698c-0.969,1.302-1.108,1.598,0.6-1.471
							c-0.178,0.134-0.847,1.223-1.595,2.45c-0.732,1.236-1.526,2.621-2.034,3.29c-0.513,0.83-1.381,2.234-1.935,3.13
							c0.869-1.107,0.742-0.467-1.062,2.007l-0.067,0.172c0.779-0.983,1.688-2.089,2.518-3.325c0.84-1.227,1.797-2.45,2.536-3.745
							c0.762-1.278,1.544-2.479,2.111-3.6c0.563-1.123,1.028-2.099,1.33-2.828l-0.297,0.848c0.35-0.639,0.716-1.289,1.038-1.967
							c0.296-0.689,0.594-1.385,0.89-2.076c0.285-0.695,0.569-1.387,0.848-2.065c0.249-0.689,0.466-1.376,0.689-2.032
							c0.939-2.613,1.516-4.919,2.134-6.139c0.104,0.287,0.379-1.109,0.604-0.943l0.812-4.229l-0.093,0.896
							c0,0,0.43-1.782,0.744-3.563c0.34-1.782,0.679-3.564,0.679-3.564l0.013,0.197c0.425-3.432,0.738-6.12,0.955-8.272
							c-0.111-0.028-0.187,0.186-0.065-0.959c0.154-1.143,0.291-2.005,0.43-2.771c0-0.007,0-0.007-0.001-0.007l0.002,0.001
							c0.314-1.75,0.692-2.889,1.085-5.045c0,0-0.061,0.417-0.151,1.043c-0.101,0.624-0.234,1.456-0.367,2.288
							c-0.27,1.664-0.538,3.328-0.538,3.328c0.096,0.574,0.406,0.048,1.072-3.196c-0.213,1.336-0.155,1.921,0.14,0.271
							c-0.016-0.189,0.59-4.39,0.181-2.816c0.215-1.59,0.495-3.421,0.817-5.425c0.277-2.012,0.579-4.198,0.895-6.486
							c0.502-4.595,0.96-9.633,0.806-14.524c0.125,7.03,0.341-5.63,0.312,2.177c0.194-2.722,0.134-3.899,0.04-5.084
							c-0.112-1.186-0.319-2.38-0.378-5.154c0.097-0.478,0.084,3.02,0.347,4.293c-0.066-2.31-0.077-4.443-0.288-6.472
							c-0.241-2.025-0.387-3.962-0.735-5.865c-0.174-0.951-0.346-1.899-0.521-2.856c-0.181-0.954-0.312-1.925-0.577-2.891
							c-0.229-0.973-0.464-1.963-0.704-2.982c-0.114-0.511-0.23-1.029-0.348-1.556c-0.135-0.522-0.307-1.045-0.459-1.582
							l0.123-0.434c-0.263-0.809-0.539-1.661-0.825-2.545c-0.152-0.438-0.27-0.897-0.457-1.34
							C302.655,76.824,302.466,76.375,302.274,75.923z M293.181,60.802c-1.12-1.304-2.373-2.519-3.58-3.811
							c0.116,0.129,0.223,0.248,0.344,0.382c0,0-0.215-0.24-0.581-0.557c-0.363-0.318-0.848-0.744-1.332-1.169
							c-0.966-0.849-1.933-1.696-1.933-1.696c2.231,2.245,3.538,3.853,0.265,0.922c0.338,0.182-0.514-0.796,0.638,0.215
							c-2.003-2.186-7.03-6.317-5.935-4.967c4.62,3.313,0.729,1.191,4.307,3.848c-1.988-1.349-3.677-3.003-5.567-4.244
							c1.975,1.28-0.126-0.728-2.941-2.874c-0.649-0.415-1.821-1.228-3.1-2.108c-1.285-0.873-2.729-1.736-3.826-2.392
							c0.646,0.679-1.294-0.404,2.179,1.875c-0.658-0.384-1.491-0.883-2.43-1.476c-0.466-0.301-0.961-0.622-1.479-0.956
							c-0.521-0.329-1.064-0.671-1.625-1.024c0.933,0.484,2.509,1.419,2.437,1.296c-1.331-1.094-3.087-2.063-3.987-2.711
							c-0.77-0.429-1.529-0.892-2.302-1.283c0.217,0.14,0.4,0.27,0.524,0.374l-2.665-1.225c3.472,1.77,1.53,0.952,1.422,1.043
							c0.22-0.18-2.184-1.228-3.356-1.856l2.406,1.627c-1.289-0.549-4.237-2.531-3.729-1.932c5.346,2.992,7.423,4.097,12.168,6.945
							c0,0-0.445-0.348-0.891-0.695c-0.441-0.354-0.9-0.682-0.9-0.682c5.354,3.228,3.117,2.294,8.858,6.273
							c1.241,0.759,3.327,2.359,5.138,3.744c1.758,1.448,3.271,2.657,3.457,2.556c-0.365-0.248,0.396,0.534,1.432,1.61
							c1.064,1.046,2.409,2.368,3.268,3.212c0.514,0.421,1.241,1.103,2.021,1.859c0.733,0.795,1.485,1.692,2.151,2.459
							c0.326,0.388,0.646,0.732,0.888,1.047c0.236,0.317,0.43,0.579,0.565,0.761c0.276,0.356,0.33,0.376,0.028-0.153
							c-0.557-0.933-1.453-1.854-2.209-2.806c-0.387-0.471-0.759-0.935-1.092-1.376c-0.362-0.417-0.687-0.811-0.938-1.171
							c0,0,0.183,0.19,0.456,0.476c0.276,0.283,0.646,0.66,0.969,1.076c0.671,0.813,1.342,1.626,1.342,1.626l-1.575-2.292
							C293.311,61.736,293.372,61.509,293.181,60.802z M211.38,13.774c-0.044-0.016-0.102-0.036-0.155-0.054
							c0.06,0.019,0.118,0.038,0.174,0.056L211.38,13.774z"/>
						<path fill="#FFFFFF" d="M147.68,235.62c-1.22,0.042-4.229-0.111-3.649,0.108C143.969,235.517,149.41,235.93,147.68,235.62z"/>
						<path fill="#FFFFFF" d="M144.092,235.253c-0.214,0.039-0.07,0.132-1.421,0.071l3.719,0.117L144.092,235.253z"/>
						<path fill="#FFFFFF" d="M140.401,233.608c-1.918,0.051-3.135,0.073-6.126-0.159c-1.086-0.59,4.91,0.2,6.297-0.229
							c-5.48-0.365-7.192-0.044-11.697-0.41c1.103,0.213,3.932,0.558,6.517,0.743C137.975,233.743,140.309,233.8,140.401,233.608z"
							/>
						<polygon fill="#FFFFFF" points="142.875,233.08 139.817,233.036 140.116,233.083 143.176,233.125 						"/>
						<path fill="#FFFFFF" d="M209.535,235.253c0.305,0.105,2.184-0.433,3.197-0.676
							C211.899,234.734,210.729,234.924,209.535,235.253z"/>
						<path fill="#FFFFFF" d="M5.589,129.021c0,0,0.091,0.355,0.25,0.977c0.166,0.622,0.403,1.51,0.688,2.574
							c0.569,2.131,1.329,4.971,2.088,7.811c0.728,2.849,1.603,5.657,2.214,7.775c0.622,2.115,1.036,3.525,1.036,3.525
							c-0.938-3.25-1.896-6.361-2.878-9.949C8.027,138.139,6.945,134.094,5.589,129.021z"/>
						<path fill="#FFFFFF" d="M278.91,199.945c-1.064,1.202-2.094,2.117-2.982,3.026c-0.91,0.886-1.701,1.746-2.586,2.502
							c-1.733,1.554-3.461,3.157-6.096,5.086c0.887-0.606,1.69-1.173,2.428-1.709c0.735-0.54,1.365-1.104,1.973-1.609
							c1.192-1.042,2.253-1.92,3.185-2.882c0.94-0.95,1.848-1.869,2.865-2.841c1.011-0.979,2.049-2.101,3.38-3.328L278.91,199.945z"
							/>
						<path fill="#FFFFFF" d="M278.195,202.464c-0.511,0.242,0.384-0.628,1.19-1.612c0.827-0.962,1.668-1.928,1.261-1.669
							c-2.985,3.165-1.173,1.697-4.093,4.359L278.195,202.464z"/>
						<path fill="#FFFFFF" d="M252.142,215.219c0,0,0.393-0.259,0.785-0.518c0.381-0.276,0.763-0.553,0.763-0.553
							s-0.315,0.207-0.632,0.414c-0.314,0.209-0.645,0.394-0.645,0.394L252.142,215.219z"/>
						<path fill="#FFFFFF" d="M295.665,178.716l-0.266,0.672c0,0,0.393-0.717,0.786-1.433c0.196-0.358,0.393-0.718,0.539-0.986
							c0.147-0.27,0.227-0.458,0.227-0.458s-0.074,0.142-0.185,0.354c-0.123,0.206-0.286,0.48-0.449,0.755
							C295.991,178.167,295.665,178.716,295.665,178.716z"/>
						<path fill="#FFFFFF" d="M295.135,180.062l0.265-0.674L295.135,180.062z"/>
						<path fill="#FFFFFF" d="M253.896,213.444c0,0-0.603,0.344-1.205,0.688c-0.616,0.318-1.232,0.637-1.232,0.637l-1.14,0.779
							c0,0,0.903-0.512,1.806-1.023c0.456-0.248,0.893-0.529,1.223-0.736C253.676,213.582,253.896,213.444,253.896,213.444z"/>
						<path fill="#FFFFFF" d="M274.633,200.209l-1.78,1.77C273.205,201.628,275.819,199.397,274.633,200.209z"/>
						<path fill="#FFFFFF" d="M302.573,160.086c0,0,0.158-0.783,0.316-1.565c0.084-0.395,0.151-0.779,0.193-1.064
							c0.046-0.287,0.076-0.479,0.076-0.479l-0.091,0.305c0,0-0.113,0.758-0.283,1.544c-0.157,0.779-0.315,1.56-0.315,1.56
							L302.573,160.086z"/>
						<path fill="#FFFFFF" d="M286.664,184.902c-1.137,1.292,2.683-4.135,0.566-1.323
							C285.515,186.182,286.324,185.205,286.664,184.902z"/>
						<path fill="#FFFFFF" d="M301.141,151.437c0.079-0.408,0.153-0.839,0.208-1.258
							C301.267,150.674,301.198,151.09,301.141,151.437z"/>
						<path fill="#FFFFFF" d="M301.141,151.437c-0.252,1.318-0.611,2.614-0.723,3.53
							C300.848,153.347,300.937,152.744,301.141,151.437z"/>
						<path fill="#FFFFFF" d="M303.796,136.303l-0.214,1.197c0.087-1.244,0.009-0.66-0.08,0.448
							c-0.201,1.272-0.116,1.213-0.091,1.373c-0.013,0.259-0.025,0.518-0.039,0.797c0.033-0.396,0.062-0.754,0.088-1.057
							C303.787,137.092,303.974,135.888,303.796,136.303z"/>
						<path fill="#FFFFFF" d="M306.324,78.644c1.361,4.544,1.395,5.769,1.204,5.555c0.451,2.179,0.715,3.083,0.947,3.772
							c0.209,0.691,0.361,1.168,0.6,2.487c-0.336-2.488-0.722-3.97-1.057-5.581c-0.176-0.804-0.359-1.639-0.579-2.642
							C307.134,81.25,306.775,80.098,306.324,78.644z"/>
						<path fill="#FFFFFF" d="M309.075,90.458c0.087,0.557,0.171,1.088,0.271,1.733C309.245,91.468,309.158,90.932,309.075,90.458z"
							/>
						<polygon fill="#FFFFFF" points="298.627,153.579 298.892,150.796 298.736,151.806 						"/>
						<path fill="#FFFFFF" d="M303.957,71.999c0.321,0.824,0.858,2.137,1.059,2.805C305.283,74.974,303.638,71.173,303.957,71.999z"
							/>
						<path fill="#FFFFFF" d="M305.477,90.082c-0.045,0.47,0.449,3.307,0.571,4.473C305.832,92.891,305.958,91.482,305.477,90.082z"
							/>
						<path fill="#FFFFFF" d="M296.313,60.598c0.539,0.696,1.278,1.826,0.794,1.459c0.45,0.451,0.914,1.063,0.995,1.017
							C298.168,63.043,297.837,62.354,296.313,60.598z"/>
						<path fill="#FFFFFF" d="M303.745,82.039l0.128,0.632c0,0,0.063,0.183,0.157,0.456c0.073,0.279,0.171,0.652,0.268,1.025
							c0.194,0.746,0.389,1.492,0.389,1.492s-0.214-0.907-0.428-1.814c-0.099-0.455-0.217-0.906-0.336-1.236
							C303.816,82.26,303.745,82.039,303.745,82.039z"/>
						<path fill="#FFFFFF" d="M303.243,93.17c0.712,3.312-0.268-5.376,0.771,0.36c-0.895-7.48-0.188,0.607-1.031-4.865
							C303.451,91.874,303.363,93.487,303.243,93.17z"/>
						<path fill="#FFFFFF" d="M302.983,88.666c-0.096-0.461-0.199-0.959-0.312-1.499C302.796,87.765,302.896,88.248,302.983,88.666z
							"/>
						<path fill="#FFFFFF" d="M278.842,49.083c0.411,0.284,0.697,0.472,0.964,0.642C279.481,49.501,279.17,49.292,278.842,49.083z"
							/>
						<path fill="#FFFFFF" d="M297.4,72.118c0,0,0.162,0.267,0.404,0.667c0.119,0.201,0.271,0.43,0.409,0.688
							c0.127,0.264,0.262,0.546,0.397,0.828c0.543,1.133,1.086,2.265,1.086,2.265c-1.136-3.211-5.427-10.385-5.51-9.676
							c0.354,0.564,0.735,1.149,1.122,1.727c0.357,0.6,0.661,1.233,0.984,1.804c0.631,1.151,1.211,2.141,1.583,2.703L297.4,72.118z"
							/>
						<path fill="#FFFFFF" d="M256.182,30.292l2.092,0.915l-2.522-1.32C256.456,30.298,255.034,29.846,256.182,30.292z"/>
						<path fill="#FFFFFF" d="M255.263,29.631l0.488,0.255C255.646,29.824,255.492,29.743,255.263,29.631z"/>
						<path fill="#FFFFFF" d="M286.444,55.174c0.602,0.575,1.143,1.092,1.672,1.597c0.542,0.49,1.063,0.975,1.587,1.523
							c-0.096-0.126-0.341-0.413-0.654-0.769c-0.34-0.331-0.748-0.728-1.136-1.105C287.127,55.673,286.403,55.024,286.444,55.174z"
							/>
						<path fill="#FFFFFF" d="M241.455,24.035c0,0,0.874,0.334,1.732,0.708c0.862,0.365,1.724,0.73,1.724,0.73
							s-0.937-0.407-1.874-0.813c-0.933-0.416-1.885-0.784-1.885-0.783L241.455,24.035z"/>
						<path fill="#FFFFFF" d="M225.375,17.22l-0.587-0.277c0,0-0.736-0.244-1.482-0.458c-0.744-0.22-1.488-0.44-1.488-0.44
							l0.601,0.268c0,0,0.741,0.219,1.483,0.438C224.639,16.985,225.375,17.22,225.375,17.22z"/>
						<path fill="#FFFFFF" d="M243.997,31.528c2.265,1.012,4.118,1.616,3.562,1.271c0.001,0-1.081-0.527-2.186-1.006
							c-1.103-0.483-2.205-0.966-2.205-0.966c1.01,0.738,1.236,0.508,3.74,1.742c0,0-0.717-0.284-1.451-0.533
							C244.728,31.783,243.997,31.528,243.997,31.528z"/>
						<path fill="#FFFFFF" d="M97.736,6.309c1.022-0.455,6.292-1.756,6.618-1.614c-0.701,0.211-3.524,1.014-1.714,0.652l4.079-1.386
							c5.635-0.951-4.137,1.404-6.77,2.392c2.801-0.734,4.616-1.21,6.48-1.698c0.928-0.259,1.875-0.494,2.971-0.729
							c1.096-0.236,2.329-0.523,3.851-0.792c-1.8,0.287-2.945,0.432-3.911,0.525c-0.133-0.125,1.222-0.437,3.117-0.821
							c1.908-0.319,4.349-0.741,6.4-1.009c-2.629,0.217-1.138-0.093,0.756-0.453c0.342-0.053,0.568-0.099,0.728-0.139
							c0.221-0.042,0.429-0.083,0.643-0.124l-0.494,0.063c0.031-0.038-0.083-0.063-0.446-0.072
							c-0.862,0.132-1.675,0.237-2.445,0.325c-0.766,0.104-1.488,0.203-2.173,0.296c-1.368,0.185-2.599,0.283-3.693,0.519
							c1.128,0.021-0.735,0.419-3.219,0.9c-2.476,0.514-5.564,1.177-6.9,1.613l-3.117,0.878c0,0-1.168,0.319-1.168,0.32
							c-0.248,0.017,0.06-0.154,1.824-0.715c-1.483,0.437-6.396,1.943-5.901,1.934c0,0-0.705,0.201-1.744,0.555
							c-1.042,0.346-2.432,0.807-3.822,1.268c-1.375,0.499-2.751,0.998-3.783,1.372c-1.034,0.369-1.714,0.638-1.714,0.638
							c-0.346,0.116-0.694,0.227-0.958,0.293c-0.366,0.177-0.42,0.225-0.362,0.229c0,0-2.981,1.131-7.359,3.05
							c-4.369,1.936-10.12,4.693-15.688,7.802c-5.579,3.088-10.974,6.516-14.889,9.286c-3.93,2.747-6.444,4.737-6.444,4.737
							c0.996-0.781,1.976-1.436,2.953-2.11c0.985-0.663,1.952-1.37,3.046-2.07c-3.024,2.472,3.539-2.369,2.767-1.47
							c-1.375,1.089-3.517,2.484-4.773,3.355c-0.367,0.459,1.461-0.719,1.365-0.422c2.689-1.745,4.114-2.933,5.585-4.027
							c1.458-1.115,2.892-2.247,5.617-3.802c-0.119,0.287-1.693,1.422,1.803-0.716l-0.872,0.571c5.585-3.454,4.62-2.199,8.025-4.577
							l0.027,0.284c2.512-1.609,7.735-4.107,10.693-5.478l-0.156,0.127c4.129-1.967,5.307-2.491,6.638-3
							c1.335-0.502,2.771-1.123,7.595-2.907c0,0-1.085,0.476-2.171,0.952c-0.542,0.238-1.084,0.476-1.49,0.654
							c-0.403,0.187-0.671,0.312-0.671,0.312c3.365-1.107,3.996-1.712,6.418-2.499c-0.152,0.116,0.456,0.079-1.79,0.927
							c0,0,0.717-0.307,1.815-0.706c1.096-0.408,2.557-0.952,4.019-1.497c1.478-0.502,2.956-1.005,4.064-1.382
							c0.553-0.193,1.018-0.343,1.346-0.438c0.327-0.1,0.514-0.158,0.514-0.158C101.685,5.368,98.217,6.296,97.736,6.309z"/>
						<path fill="#FFFFFF" d="M113.251,3.133c0.657-0.094,1.401-0.21,2.277-0.364C114.68,2.905,113.95,3.021,113.251,3.133z"/>
						<path fill="#FFFFFF" d="M33.659,38.636l2.828-2.231C35.6,37.082,34.682,37.797,33.659,38.636z"/>
						<path fill="#FFFFFF" d="M131.059,0.524c-2.192,0.012,1.625-0.319,2.007-0.389c0,0-0.491-0.007-1.226,0.049
							c-0.735,0.046-1.715,0.108-2.695,0.169c-0.981,0.058-1.96,0.123-2.686,0.199c-0.729,0.066-1.215,0.111-1.215,0.111
							c0.044,0.098-0.714,0.281-0.549,0.359c0,0,1.586-0.144,3.171-0.289C129.462,0.629,131.059,0.524,131.059,0.524z"/>
						<path fill="#FFFFFF" d="M122.971,0.677c-0.256,0.083-1.073,0.259-1.987,0.435c0,0,1.064-0.156,2.129-0.255
							c1.065-0.097,2.13-0.194,2.13-0.194C125.209,0.59,124.726,0.564,122.971,0.677z"/>
						<path fill="#FFFFFF" d="M124.345,5.995c0,0-1.33,0.135-1.33,0.135l-1.994,0.334c0,0,0.829-0.128,1.658-0.256
							C123.508,6.074,124.345,5.994,124.345,5.995z"/>
						<path fill="#FFFFFF" d="M103.67,9.19c1.598-0.208,4.523-1.037,5.513-1.269C105.766,8.684,107.236,8.308,103.67,9.19z"/>
						<polygon fill="#FFFFFF" points="108.242,9.817 105.009,10.66 105.319,10.619 						"/>
						<path fill="#FFFFFF" d="M15.72,58.356c-0.357,0.448-0.674,0.91-1.002,1.391C15.166,59.099,15.466,58.684,15.72,58.356z"/>
						<path fill="#FFFFFF" d="M36.726,37.22c-6.695,4.88,4.117-3.542,1.864-2.214c0,0-0.9,0.68-1.759,1.416
							c-0.868,0.724-1.736,1.447-1.736,1.447l0.239-0.317c0,0-0.27,0.215-0.673,0.537c-0.405,0.321-0.945,0.748-1.465,1.203
							c-1.049,0.896-2.098,1.793-2.098,1.793c0.979-0.599,1.634-1.137,1.563-0.839c-2.844,2.327-3.274,2.723-3.579,2.884
							c-0.298,0.171-0.428,0.159-2.51,1.899c0,0-1.472,1.453-2.944,2.907c-1.441,1.488-2.844,3.019-2.844,3.019l0.42-0.526
							c-0.476,0.513-0.671,0.753-0.813,0.947c0,0.001-0.297,0.32-0.792,0.907c-0.499,0.583-1.21,1.416-2.065,2.415
							c-0.833,1.02-1.762,2.25-2.778,3.548c-0.952,1.354-1.997,2.776-2.95,4.271c-0.933,1.511-1.901,2.994-2.662,4.49
							c-0.395,0.738-0.79,1.442-1.139,2.126c-0.323,0.701-0.628,1.362-0.91,1.974c-0.277,0.614-0.548,1.167-0.756,1.675
							c-0.195,0.515-0.365,0.963-0.505,1.333c-0.279,0.738-0.438,1.161-0.438,1.161c-0.453,1.231-0.505,1.722-0.486,1.763
							c0.032,0.047,0.185-0.333,0.369-0.744c0.411-0.807,0.894-1.755,0.338,0.081c1.034-2.832,2.519-6.269,4.039-8.876
							c0.362-0.662,0.705-1.287,1.016-1.855c0.331-0.553,0.629-1.051,0.884-1.477c0.498-0.856,0.794-1.435,0.785-1.592
							c-0.062,0.199-0.193,0.58,0.492-0.407l1.727-2.97l-1.964,2.62c0.435-0.748,1.167-1.878,2.045-3.177
							c0.928-1.252,1.999-2.676,3.102-4.008c1.139-1.296,2.213-2.597,3.184-3.565c0.959-0.98,1.718-1.729,2.094-2.061
							c-2.116,2.321-2.573,2.96-3.215,3.851c-0.64,0.893-1.591,1.907-4.342,5.332c0.317-0.256,1.434-1.417,0.259,0.165
							c3.04-4.141,6.347-7.694,9.809-11.117C28.999,43.819,32.664,40.553,36.726,37.22z"/>
						<path fill="#FFFFFF" d="M5.513,127.445l-0.05-0.068C5.521,127.546,5.547,127.601,5.513,127.445z"/>
						<path fill="#FFFFFF" d="M4.793,124.183l-1.455-4.636l1.755,7.354l0.369,0.475c-0.214-0.636-0.943-3.186-1.083-4.21
							L4.793,124.183z"/>
						<path fill="#FFFFFF" d="M1.794,114.139c0.561,1.859,0.854,2.741,0.994,2.88c0.136,0.142,0.118-0.459-0.076-1.505
							c0.968,3.451,0.129,1.915,0.999,4.243c0.178-0.125-0.915-4.413-1.251-5.365L1.794,114.139z"/>
						<polygon fill="#FFFFFF" points="3.125,84.352 2.974,85.449 3.668,82.828 						"/>
						<path fill="#FFFFFF" d="M2.974,85.449l-0.677,2.616c0.131-0.161,0.26-0.321,0.422-0.738L2.974,85.449z"/>
						<path fill="#FFFFFF" d="M0.658,95.09c-0.121,0.581-0.248,1.192-0.385,1.854C0.189,97.647,0.099,98.403,0,99.233
							c0,0,0.129-1.064,0.259-2.128C0.443,96.085,0.658,95.09,0.658,95.09z"/>
						<path fill="#FFFFFF" d="M1.36,91.985l-0.059,0.081c0,0-0.045,0.184-0.114,0.459c-0.059,0.284-0.138,0.664-0.216,1.044
							C0.815,94.33,0.658,95.09,0.658,95.09C0.907,93.98,1.098,92.947,1.36,91.985z"/>
						<path fill="#FFFFFF" d="M2.297,88.065c-0.298,0.387-0.643,0.825-1.474,4.697c0,0,0.112-0.183,0.234-0.354
							c0.122-0.171,0.244-0.343,0.244-0.343L2.297,88.065z"/>
						<path fill="#FFFFFF" d="M84.847,16.51l-2.775,1.221l0.31-0.088c0,0,0.693-0.306,1.386-0.611
							c0.691-0.31,1.391-0.601,1.39-0.601L84.847,16.51z"/>
						<path fill="#FFFFFF" d="M68.739,23.318c-0.649,0.373-1.143,0.656-1.593,0.915C67.843,23.862,68.39,23.553,68.739,23.318z"/>
						<path fill="#FFFFFF" d="M57.988,30.677c-3.148,1.63,4.072-2.716-1.617,0.549c-0.297,0.067,0.18-0.351,1.07-0.977
							c0.898-0.613,2.231-1.398,3.6-2.122c-0.126,0.281-2.566,1.588-0.82,0.812c1.681-1.202,2.44-1.447,1.679-1.344
							c2.983-1.763,3.216-2.154,5.245-3.363c-0.929,0.493-2.11,1.119-3.435,1.821c-1.335,0.685-2.796,1.476-4.269,2.319
							c-1.489,0.816-2.978,1.701-4.361,2.582c-1.399,0.856-2.683,1.724-3.745,2.529c-2.281,1.865-0.539,1.277-0.292,1.684
							c0.221-0.062,1.898-1.138,3.577-2.179C56.306,31.957,57.946,30.887,57.988,30.677z"/>
						<path fill="#FFFFFF" d="M63.067,28.365c1.455-0.744,1.887-0.994,2.754-1.499C65.507,26.849,64.23,27.742,63.067,28.365z"/>
						<path fill="#FFFFFF" d="M30.152,47.22c-0.213,0.239-2.302,2.406-1.756,2.04c0,0,0.2-0.203,0.499-0.508
							c0.299-0.306,0.695-0.715,1.115-1.099c0.83-0.782,1.659-1.563,1.659-1.563C30.87,46.801,30.534,46.994,30.152,47.22z"/>
						<path fill="#FFFFFF" d="M33.134,44.729c0,0-0.377,0.328-0.737,0.676c-0.364,0.343-0.728,0.686-0.728,0.686
							C32.047,45.763,32.486,45.327,33.134,44.729z"/>
						<path fill="#FFFFFF" d="M29.962,47.334c0.063-0.038,0.121-0.072,0.19-0.114C30.19,47.166,30.171,47.164,29.962,47.334z"/>
						<path fill="#FFFFFF" d="M0.218,107.238c-0.186-0.002,0.368,2.08,0.647,3.119C0.697,109.483,0.417,108.326,0.218,107.238z"/>
						<path fill="#FFFFFF" d="M21.608,181.561l0.49,1.75C21.948,182.683,21.871,182.363,21.608,181.561z"/>
						<path fill="#FFFFFF" d="M34.888,206.3c0.043,0.039,0.112,0.154,0.198,0.312C35.004,206.453,34.937,206.345,34.888,206.3z"/>
						<path fill="#FFFFFF" d="M35.086,206.613c0.282,0.55,0.733,1.724,1.21,2.905c0.501,1.172,1.016,2.356,1.365,2.95l-0.116-0.14
							l1.105,2.292c-0.48-1.09-1.226-2.778-1.92-4.354C36.021,208.7,35.429,207.218,35.086,206.613z"/>
					</g>
				</g>
			</g>
		</g>
	</g>
</g>
</svg>
